<?xml version="1.0" standalone="no"?>
<!DOCTYPE svg PUBLIC "-//W3C//DTD SVG 1.1//EN"
  "http://www.w3.org/Graphics/SVG/1.1/DTD/svg11.dtd">
<svg version="1.1" xmlns="http://www.w3.org/2000/svg" xmlns:xlink="http://www.w3.org/1999/xlink" width="1920" height="1080" viewBox="-716.8888888888889 -32 2513.777777777778 1414" id="ccdiagram"><filter id="grayscale"><feColorMatrix type="matrix" values="0.3333 0.3333 0.3333 0 0 0.3333 0.3333 0.3333 0 0 0.3333 0.3333 0.3333 0 0 0 0 0 1 0"></feColorMatrix></filter><defs><style type="text/css">@import url('https://fonts.googleapis.com/css?family=Open+Sans:400,700|Inconsolata:400');</style></defs><g><rect x="-716.8888888888889" y="-32" width="2513.777777777778" height="1414" fill="#ffffff" id="interactionLayer"></rect><g pointer-events="auto"><g opacity="1"><g><g><polygon points="1328 -922, 1643 -922, 1688 -877, 1688 -135, 1643 -90, 1328 -90, 1283 -135, 1283 -877" fill="#e6e7e8" stroke-width="0" stroke="rgba(0, 0, 0, 0)"></polygon><polygon points="1328 -877, 1643 -877, 1643 -135, 1328 -135" fill="rgba(0, 0, 0, 0)"></polygon></g></g></g><g opacity="1"><g><g><polygon points="1823 -922, 2138 -922, 2183 -877, 2183 -270, 2138 -225, 1823 -225, 1778 -270, 1778 -877" fill="#e6e7e8" stroke-width="0" stroke="rgba(0, 0, 0, 0)"></polygon><polygon points="1823 -877, 2138 -877, 2138 -270, 1823 -270" fill="rgba(0, 0, 0, 0)"></polygon></g></g></g><g opacity="1"><g><g><polygon points="203 608, 878 608, 923 653, 923 1170, 878 1215, 203 1215, 158 1170, 158 653" fill="#9e9e9e" stroke-width="0" stroke="#e6e7e8"></polygon><polygon points="203 653, 878 653, 878 1170, 203 1170" fill="#e6e7e8"></polygon></g></g></g></g><g pointer-events="auto"><g opacity="1"><g id="a960a5f7-bd59-4770-bdd0-8c79f9bfaf6d"><g><polygon points="360 653, 720 653, 720 1013, 360 1013" fill="#ececed" stroke="#000000"></polygon><svg x="207" y="542" overflow="visible"><g fill="#693cc5" fill-opacity="1" stroke="none" transform="scale(1.25) "><path stroke="none" d="M144 93.924l-14.834 8.565v19.577l16.954 9.789 14.835-8.565-6.358-3.67-8.477 4.893-10.597-6.117V106.16l8.478-4.894z"></path><path stroke="none" d="M148.24 93.924v7.342l8.476 4.894v9.788l6.358 3.671v-17.13z"></path></g></svg><clipPath id="clip-a960a5f7-bd59-4770-bdd0-8c79f9bfaf6d"><rect x="360.2075" y="652.775" width="352.755" height="361.8"></rect></clipPath><text font-family="Open Sans" font-size="32pt" fill="#000000" font-weight="bold" x="419" y="698" stroke="#ffffff" stroke-width="4" clip-path="url(#clip-a960a5f7-bd59-4770-bdd0-8c79f9bfaf6d)"><tspan>ECS Cluster</tspan></text><text font-family="Open Sans" font-size="32pt" fill="#000000" font-weight="bold" x="419" y="698" clip-path="url(#clip-a960a5f7-bd59-4770-bdd0-8c79f9bfaf6d)"><tspan>ECS Cluster</tspan></text></g></g></g></g><g pointer-events="auto"></g><g></g><g pointer-events="auto"></g><g></g><g pointer-events="auto"></g><g pointer-events="auto"><g opacity="1"><g id="8ca34422-3c85-451b-8881-e8ba34a1fe61"><g><polygon points="-517 540, -247 540, -247 810, -517 810" fill="#fff" stroke="#000000"></polygon><clipPath id="clip-8ca34422-3c85-451b-8881-e8ba34a1fe61"><rect x="-518.045" y="539.82" width="262.305" height="271.35"></rect></clipPath><text font-family="Open Sans" font-size="25pt" fill="#000000" font-weight="bold" x="-509" y="576" stroke="#ffffff" stroke-width="4" clip-path="url(#clip-8ca34422-3c85-451b-8881-e8ba34a1fe61)"><tspan>ECS Service</tspan></text><text font-family="Open Sans" font-size="25pt" fill="#000000" font-weight="bold" x="-509" y="576" clip-path="url(#clip-8ca34422-3c85-451b-8881-e8ba34a1fe61)"><tspan>ECS Service</tspan></text></g></g></g></g><g pointer-events="none"></g><g pointer-events="auto"><g id="211f0e48-1263-44f5-8700-91db0b679522-e72e1e0b-b30b-4085-850c-e9e45b5db60a"><g cursor="cell"><line x1="540" y1="200" x2="540" y2="324" stroke="red" stroke-width="8" opacity="0"></line><line x1="540" y1="200" x2="540" y2="324" stroke="#03a9f4" stroke-width="2" stroke-linecap="round"></line><polygon points="540 338, 551 313, 540 320, 529 313, 540 338" stroke-linejoin="round" fill="#03a9f4" stroke="#03a9f4" stroke-width="1"></polygon></g></g><g id="5fe194ef-aaa3-4d99-a304-3c5737985be2-a960a5f7-bd59-4770-bdd0-8c79f9bfaf6d"><g cursor="cell"><line x1="360" y1="1035" x2="527" y2="1014" stroke="red" stroke-width="8" opacity="0"></line><line x1="360" y1="1035" x2="527" y2="1014" stroke="#3f8624" stroke-width="2" stroke-linecap="round"></line><polygon points="540 1013, 514 1004, 523 1015, 517 1027, 540 1013" stroke-linejoin="round" fill="#3f8624" stroke="#3f8624" stroke-width="1"></polygon></g></g><g id="d7f0cd2a-70f5-45c6-b4fc-40971bb3e8cb-a960a5f7-bd59-4770-bdd0-8c79f9bfaf6d"><g cursor="cell"><line x1="720" y1="1035" x2="553" y2="1014" stroke="red" stroke-width="8" opacity="0"></line><line x1="720" y1="1035" x2="553" y2="1014" stroke="#3b48cc" stroke-width="2" stroke-linecap="round"></line><polygon points="540 1013, 563 1027, 557 1015, 566 1004, 540 1013" stroke-linejoin="round" fill="#3b48cc" stroke="#3b48cc" stroke-width="1"></polygon></g></g><g id="e72e1e0b-b30b-4085-850c-e9e45b5db60a-a960a5f7-bd59-4770-bdd0-8c79f9bfaf6d"><g cursor="cell"><line x1="540" y1="428" x2="540" y2="639" stroke="red" stroke-width="8" opacity="0"></line><line x1="540" y1="428" x2="540" y2="639" stroke="#693cc5" stroke-width="2" stroke-linecap="round"></line><polygon points="540 653, 551 628, 540 635, 529 628, 540 653" stroke-linejoin="round" fill="#693cc5" stroke="#693cc5" stroke-width="1"></polygon></g></g><g id="a6a5dffc-92bd-44f7-ba40-1e2a42f01944-a960a5f7-bd59-4770-bdd0-8c79f9bfaf6d"><g cursor="cell"><line x1="765" y1="833" x2="734" y2="833" stroke="red" stroke-width="8" opacity="0"></line><line x1="765" y1="833" x2="734" y2="833" stroke="#d86613" stroke-width="2" stroke-linecap="round"></line><polygon points="720 833, 744 844, 738 833, 744 821, 720 833" stroke-linejoin="round" fill="#d86613" stroke="#d86613" stroke-width="1"></polygon></g></g></g><g pointer-events="auto"><g opacity="1"><g id="a7a0b65b-89b3-4ffc-afa6-5f966946b63a" transform="translate(0 0)"><svg x="1440" y="-922" height="90" width="90"><path d="M0 0h90v90H0z" fill="#ff9800" data-name="Green Light BG"></path><path d="M73.716 48.072c-.348-1.884-2.484-3.216-3.948-4.164-.468-.3-1.752-.78-1.86-1.2a2.832 2.832 0 0 1 .12-.888l1.2-8.628c.348-2.532.684-5.064 1.032-7.596.312-2.328-.804-3.888-2.7-5.196-3.864-2.676-8.904-3.756-13.452-4.5a67.02 67.02 0 0 0-17.256-.564 48 48 0 0 0-15.036 3.6c-2.568 1.2-5.928 3.072-5.508 6.348 1.2 9.744 2.616 19.464 3.924 29.196l1.8 13.356a4.956 4.956 0 0 0 2.952 3.996c3.72 2.016 8.328 2.592 12.48 2.976A61.8 61.8 0 0 0 54 74.076c3.456-.636 9.888-1.68 10.44-6 .684-5.352 1.44-10.704 2.16-16.044l.264-1.632c1.956.468 7.536 1.464 6.852-2.328zM43.26 17.4c7.2 0 15.444.816 21.9 4.368.996.552 3.312 1.788 2.616 3.252-.696 1.464-2.856 2.196-4.176 2.724a37.056 37.056 0 0 1-5.796 1.62 74.748 74.748 0 0 1-25.992.54 32.16 32.16 0 0 1-11.184-3.276c-.864-.492-2.292-1.38-1.896-2.556a3.6 3.6 0 0 1 1.416-1.512 25.008 25.008 0 0 1 8.64-3.492A60.42 60.42 0 0 1 43.26 17.4zm18.816 50.58c-.18 1.404-2.496 2.1-3.6 2.496a35.52 35.52 0 0 1-7.056 1.584 60.864 60.864 0 0 1-16.044 0 26.688 26.688 0 0 1-9.6-2.604 2.4 2.4 0 0 1-1.44-2.076c-1.2-9.516-2.568-19.032-3.852-28.548l-1.392-10.32a27.912 27.912 0 0 0 8.76 3.072 71.544 71.544 0 0 0 9.972 1.308A77.76 77.76 0 0 0 57.492 31.8a29.124 29.124 0 0 0 9.852-3.288L64.8 47.352a144.516 144.516 0 0 1-17.784-7.2 5.124 5.124 0 0 1-.732-.348c-.324-.24-.24-.12-.396-.492-.3-.684-.372-1.2-1.008-1.764a2.7 2.7 0 1 0-1.488 4.8 4.944 4.944 0 0 0 1.2-.36c.468-.144.468-.12.96.108a152.064 152.064 0 0 0 18 7.392c.924.3.912 0 .912.768a13.788 13.788 0 0 1-.228 1.74l-.768 5.724ZM43.56 39.6c0 .324-.456.288-.576.084-.12-.204.576-.54.576-.084ZM67.2 48l.36-2.652c1.2.684 3.24 1.716 3.78 3.084-1.176.48-3.036-.156-4.14-.432Z" fill="#ffffff" data-name="Product Icon"></path></svg></g></g><g opacity="1"><g id="8791c4f0-9bbb-440f-9c15-5fbbb1750d73" transform="translate(0 0)"><svg x="1935" y="-922" height="90" width="90"><path d="M0 0h90v90H0z" fill="#ff9800" data-name="Green Light BG"></path><path d="M73.716 48.072c-.348-1.884-2.484-3.216-3.948-4.164-.468-.3-1.752-.78-1.86-1.2a2.832 2.832 0 0 1 .12-.888l1.2-8.628c.348-2.532.684-5.064 1.032-7.596.312-2.328-.804-3.888-2.7-5.196-3.864-2.676-8.904-3.756-13.452-4.5a67.02 67.02 0 0 0-17.256-.564 48 48 0 0 0-15.036 3.6c-2.568 1.2-5.928 3.072-5.508 6.348 1.2 9.744 2.616 19.464 3.924 29.196l1.8 13.356a4.956 4.956 0 0 0 2.952 3.996c3.72 2.016 8.328 2.592 12.48 2.976A61.8 61.8 0 0 0 54 74.076c3.456-.636 9.888-1.68 10.44-6 .684-5.352 1.44-10.704 2.16-16.044l.264-1.632c1.956.468 7.536 1.464 6.852-2.328zM43.26 17.4c7.2 0 15.444.816 21.9 4.368.996.552 3.312 1.788 2.616 3.252-.696 1.464-2.856 2.196-4.176 2.724a37.056 37.056 0 0 1-5.796 1.62 74.748 74.748 0 0 1-25.992.54 32.16 32.16 0 0 1-11.184-3.276c-.864-.492-2.292-1.38-1.896-2.556a3.6 3.6 0 0 1 1.416-1.512 25.008 25.008 0 0 1 8.64-3.492A60.42 60.42 0 0 1 43.26 17.4zm18.816 50.58c-.18 1.404-2.496 2.1-3.6 2.496a35.52 35.52 0 0 1-7.056 1.584 60.864 60.864 0 0 1-16.044 0 26.688 26.688 0 0 1-9.6-2.604 2.4 2.4 0 0 1-1.44-2.076c-1.2-9.516-2.568-19.032-3.852-28.548l-1.392-10.32a27.912 27.912 0 0 0 8.76 3.072 71.544 71.544 0 0 0 9.972 1.308A77.76 77.76 0 0 0 57.492 31.8a29.124 29.124 0 0 0 9.852-3.288L64.8 47.352a144.516 144.516 0 0 1-17.784-7.2 5.124 5.124 0 0 1-.732-.348c-.324-.24-.24-.12-.396-.492-.3-.684-.372-1.2-1.008-1.764a2.7 2.7 0 1 0-1.488 4.8 4.944 4.944 0 0 0 1.2-.36c.468-.144.468-.12.96.108a152.064 152.064 0 0 0 18 7.392c.924.3.912 0 .912.768a13.788 13.788 0 0 1-.228 1.74l-.768 5.724ZM43.56 39.6c0 .324-.456.288-.576.084-.12-.204.576-.54.576-.084ZM67.2 48l.36-2.652c1.2.684 3.24 1.716 3.78 3.084-1.176.48-3.036-.156-4.14-.432Z" fill="#ffffff" data-name="Product Icon"></path></svg></g></g><g opacity="1"><g id="b1735bfc-e66f-4b4f-8aa6-1e18af3c7e4e" transform="translate(0 0)"><svg x="1440" y="-180" height="90" width="90"><defs></defs><path d="M0 0h90v90H0z" fill="#ff9800" data-name="Orange Light BG"></path><g fill="#ffffff" data-name="Product Icon"><path class="cls-2" d="M72.6 75H57.816a1.2 1.2 0 0 1-1.08-.684L35.832 30.6h-8.844a1.2 1.2 0 0 1-1.2-1.2V16.2a1.2 1.2 0 0 1 1.2-1.2h18.48a1.2 1.2 0 0 1 1.08.684L67.356 59.4H72.6a1.2 1.2 0 0 1 1.2 1.2v13.2a1.2 1.2 0 0 1-1.2 1.2zm-14.028-2.4H71.4V61.8h-4.8a1.2 1.2 0 0 1-1.08-.684L44.712 17.4H28.2v10.8h8.4a1.2 1.2 0 0 1 1.08.684z"></path><path class="cls-2" d="M32.976 75h-15.6a1.2 1.2 0 0 1-1.02-.564 1.2 1.2 0 0 1-.06-1.2l16.32-34.092a1.2 1.2 0 0 1 1.08-.684 1.2 1.2 0 0 1 1.08.672L42.588 55.2a1.2 1.2 0 0 1 0 1.044l-8.52 18a1.2 1.2 0 0 1-1.092.756zm-13.68-2.4H32.22l7.956-16.8-6.468-13.38z"></path></g></svg></g></g><g opacity="1"><g id="e72e1e0b-b30b-4085-850c-e9e45b5db60a" transform="translate(0 0)"><svg x="495" y="338" height="90" id="svg35" width="90" version="1.1"><defs id="defs4"></defs><g id="Reference" fill-opacity="1" transform="scale(1.2)"><path id="Purple_Light_BG" d="M0 0h75v75H0z" fill="#693cc5" data-name="Purple Light BG"></path><g id="Product_Icon" fill="#ffffff" data-name="Product Icon"><path class="cls-2" id="path9" d="M46.14 60.67l-1.78-.92a29.75 29.75 0 0 0 2.27-5.66l1.92.56a31.93 31.93 0 0 1-2.41 6.02zM48 42.36a31.87 31.87 0 0 0-5.27-15.68l1.67-1.09A33.81 33.81 0 0 1 50 42.24zM34.81 18.23a30.08 30.08 0 0 0-4.62-2.84l.91-1.78a31.94 31.94 0 0 1 4.92 3z" fill="#ffffff" fill-opacity="1"></path><path class="cls-2" id="path11" d="M43 44.9a29.91 29.91 0 0 0-11.17-7l.62-1.9a31.91 31.91 0 0 1 11.9 7.45z" fill="#ffffff" fill-opacity="1"></path><path class="cls-2" id="path13" d="M51.24 56.84c-.37-1-.79-1.92-1.25-2.85l1.79-.89a32.71 32.71 0 0 1 1.33 3z" fill="#ffffff" fill-opacity="1"></path><path class="cls-2" id="path15" d="M45.57 61.15l-.64-1.89a22.4 22.4 0 0 0 6.63-3.57l1.23 1.58a24.36 24.36 0 0 1-7.22 3.88z" fill="#ffffff" fill-opacity="1"></path><path class="cls-2" id="path17" d="M13.78 37l-.46-1.94a31.25 31.25 0 0 1 6.77-.89l.05 2a29.4 29.4 0 0 0-6.36.83z" fill="#ffffff" fill-opacity="1"></path><path class="cls-2" id="path19" d="M30.18 30.64l-1.68-1.09a28.67 28.67 0 0 1 5.37-6.4l1.32 1.51a26.64 26.64 0 0 0-5.01 5.98z" fill="#ffffff" fill-opacity="1"></path><path class="cls-2" id="path21" d="M45.05 18.78l-.68-1.88A29.77 29.77 0 0 1 49 15.58l.37 2a26.9 26.9 0 0 0-4.32 1.2z" fill="#ffffff" fill-opacity="1"></path><path class="cls-2" id="path23" d="M25.25 59a31.53 31.53 0 0 1-2.57-12 21.72 21.72 0 0 1 .62-4.72c.07-.35.15-.71.22-1.08l2 .39c-.07.38-.15.74-.22 1.1a20 20 0 0 0-.58 4.31 29.56 29.56 0 0 0 2.38 11.28z" fill="#ffffff" fill-opacity="1"></path><path class="cls-2" id="path25" d="M37.5 62.5a25 25 0 0 1-25-25c0-.51 0-1 .05-1.51a25 25 0 0 1 17.81-22.45 25 25 0 0 1 19.36 2.16 25 25 0 0 1 3.07 41.58A25.2 25.2 0 0 1 37.5 62.5zm0-48a22.56 22.56 0 0 0-6.57 1 23 23 0 0 0-16.38 20.63c0 .47-.05.92-.05 1.37a23 23 0 0 0 23 23 22.61 22.61 0 0 0 7.42-1.24 22.32 22.32 0 0 0 6.64-3.57A23 23 0 0 0 37.5 14.5z" fill="#ffffff" fill-opacity="1"></path><path class="cls-2" id="path27" d="M39.93 25.93a4.43 4.43 0 1 1 4.43-4.42 4.42 4.42 0 0 1-4.43 4.42zm0-6.85a2.43 2.43 0 1 0 2.43 2.43 2.43 2.43 0 0 0-2.43-2.43z" fill="#ffffff" fill-opacity="1"></path><path class="cls-2" id="path29" d="M26.29 39.88a4.43 4.43 0 1 1 4.43-4.43 4.44 4.44 0 0 1-4.43 4.43zm0-6.86a2.43 2.43 0 1 0 2.43 2.43A2.43 2.43 0 0 0 26.29 33z" fill="#ffffff" fill-opacity="1"></path><path class="cls-2" id="path31" d="M48.28 52.7a4.43 4.43 0 1 1 4.42-4.42 4.42 4.42 0 0 1-4.42 4.42zm0-6.85a2.43 2.43 0 1 0 2.42 2.43 2.43 2.43 0 0 0-2.42-2.43z" fill="#ffffff" fill-opacity="1"></path></g></g></svg></g></g><g opacity="1"><g id="80011dd9-1001-43f2-bc8b-4fb912d3b6c0" transform="translate(0 0)"><svg x="-180" y="383" height="90" width="90"><defs></defs><path class="cls-1" d="M80.402 80.402H9.599V9.599h70.803zm-67.137-3.667h63.47v-63.47h-63.47Z" fill="#d86613"></path><path class="cls-1" d="M19.719 1h3.666v10.432H19.72zm11.495 0h3.666v10.432h-3.666zm11.513 0h3.667v10.432h-3.667zM54.24 1h3.667v10.432H54.24zm11.514 0h3.666v10.432h-3.666zM19.719 78.57h3.666V89H19.72zm11.495 0h3.666V89h-3.666zm11.513 0h3.667V89h-3.667zm11.513 0h3.667V89H54.24zm11.514 0h3.666V89h-3.666zm12.815-58.41H89v3.666H78.57zm0 11.495H89v3.666H78.57zm0 11.513H89v3.667H78.57zm0 11.513H89v3.667H78.57zm0 11.495H89v3.667H78.57zM1 20.16h10.432v3.666H1zm0 11.495h10.432v3.666H1zm0 11.513h10.432v3.667H1zM1 54.68h10.432v3.667H1zm0 11.495h10.432v3.667H1z" fill="#d86613"></path><path d="M13.265 13.265h63.47v63.47h-63.47z" fill="#d86613" opacity=".05" stroke="#d86613" stroke-opacity="0" stroke-width=".999"></path></svg><svg x="-162" y="410" width="54" height="36" style="overflow: visible; cursor: default;"><text transform="" font-family="Open Sans" text-anchor="middle" x="50%" font-weight="bold" font-size="18pt" y="75%" fill="#d86613"><tspan>M5</tspan></text></svg></g></g><g opacity="1"><g id="1566bb56-87ae-4d8a-b961-a19f3f3e8f15" transform="translate(0 0)"><svg x="450" y="743" height="90" width="90"><path d="M5.033 3.831h79.93v82.34H5.033Z" fill="#d86613" opacity=".05"></path><path d="M87.483 90H2.517C1.127 90 0 89.144 0 88.087V1.916C0 .858 1.127 0 2.517 0h84.966C88.873 0 90 .858 90 1.916v86.17C90 89.143 88.873 90 87.483 90zM3.85 86.17l82.3.001V3.831H3.85Z" fill="#d86613"></path><path class="cls-1" d="M9.378 27.122h3.789v39.07h-3.79zm10.643 0h3.788v39.07h-3.788zm46.17 0h3.79v39.07h-3.79zm10.646 0h3.789v39.07h-3.79zm-20.72 33.843H33.884a3.2 3.201 0 0 1-3.203-3.201V35.529a3.2 3.201 0 0 1 3.203-3.199h22.233a3.2 3.201 0 0 1 3.2 3.201v22.233a3.2 3.201 0 0 1-3.202 3.2zM34.47 57.177h21.06v-21.06H34.47z" fill="#d86613"></path><path class="cls-1" d="M32.463 28.902h3.789v5.322h-3.789zm7.103 0h3.789v5.322h-3.79zm7.1 0h3.789v5.322h-3.789zm7.103 0h3.789v5.322h-3.79zm-21.306 30.17h3.789v5.321h-3.789zm7.103 0h3.789v5.321h-3.79zm7.1 0h3.789v5.321h-3.789zm7.103 0h3.789v5.321h-3.79z" fill="#d86613"></path><path class="cls-1" d="M27.254 34.11h5.323v3.788h-5.323zm0 7.103h5.323V45h-5.323zm0 7.1h5.323v3.788h-5.323zm0 7.102h5.323v3.788h-5.323zm30.17-21.305h5.323v3.788h-5.322zm0 7.103h5.323V45h-5.322zm0 7.1h5.323v3.788h-5.322zm0 7.102h5.323v3.788h-5.322z" fill="#d86613"></path></svg></g></g><g opacity="1"><g id="06704ea2-ff83-4ee9-8f49-6f0f0604f6b8" transform="translate(0 0)"><svg x="540" y="743" height="90" width="90"><path d="M5.033 3.831h79.93v82.34H5.033Z" fill="#d86613" opacity=".05"></path><path d="M87.483 90H2.517C1.127 90 0 89.144 0 88.087V1.916C0 .858 1.127 0 2.517 0h84.966C88.873 0 90 .858 90 1.916v86.17C90 89.143 88.873 90 87.483 90zM3.85 86.17l82.3.001V3.831H3.85Z" fill="#d86613"></path><path class="cls-1" d="M9.378 27.122h3.789v39.07h-3.79zm10.643 0h3.788v39.07h-3.788zm46.17 0h3.79v39.07h-3.79zm10.646 0h3.789v39.07h-3.79zm-20.72 33.843H33.884a3.2 3.201 0 0 1-3.203-3.201V35.529a3.2 3.201 0 0 1 3.203-3.199h22.233a3.2 3.201 0 0 1 3.2 3.201v22.233a3.2 3.201 0 0 1-3.202 3.2zM34.47 57.177h21.06v-21.06H34.47z" fill="#d86613"></path><path class="cls-1" d="M32.463 28.902h3.789v5.322h-3.789zm7.103 0h3.789v5.322h-3.79zm7.1 0h3.789v5.322h-3.789zm7.103 0h3.789v5.322h-3.79zm-21.306 30.17h3.789v5.321h-3.789zm7.103 0h3.789v5.321h-3.79zm7.1 0h3.789v5.321h-3.789zm7.103 0h3.789v5.321h-3.79z" fill="#d86613"></path><path class="cls-1" d="M27.254 34.11h5.323v3.788h-5.323zm0 7.103h5.323V45h-5.323zm0 7.1h5.323v3.788h-5.323zm0 7.102h5.323v3.788h-5.323zm30.17-21.305h5.323v3.788h-5.322zm0 7.103h5.323V45h-5.322zm0 7.1h5.323v3.788h-5.322zm0 7.102h5.323v3.788h-5.322z" fill="#d86613"></path></svg></g></g><g opacity="1"><g id="a6a5dffc-92bd-44f7-ba40-1e2a42f01944" transform="translate(0 0)"><svg x="765" y="788" height="90" width="90"><defs></defs><path d="M0 .002h90v89.682H0z" fill="#d86613" data-name="Orange Gradient"></path><g data-name="Icon Test"><path class="cls-2" d="M71.4 35.947V60.4L49.8 72.836v-9.28l12-6.899a2.4 2.392 0 0 0 1.2-1.746 6 5.979 0 0 0 0-.932V40.37l8.4-4.783M73.092 32a.708.705 0 0 0-.348.083l-11.46 6.6c-.216.12-.684.336-.684.61V53.98a4.8 4.783 0 0 1 0 .61l-12.84 7.377a.72.717 0 0 0-.348.61V75.73a.708.705 0 0 0 .708.706.72.717 0 0 0 .348-.096l24.996-14.35a.72.717 0 0 0 .348-.61V32.61a.696.694 0 0 0-.708-.693z" fill="#ffffff"></path><path class="cls-2" d="M43.104 77.655a1.896 1.89 0 0 1-.948-.251l-25.008-14.35a1.896 1.89 0 0 1-.948-1.638V29.741a1.896 1.89 0 0 1 .948-1.639l27.504-15.82a1.872 1.865 0 0 1 1.908 0l24.996 14.35a1.908 1.901 0 0 1 .948 1.638 1.932 1.925 0 0 1-.948 1.65L45 45.226v30.54a1.872 1.865 0 0 1-.948 1.638 1.896 1.89 0 0 1-.948.25zM18.6 61.093l24 13.8V44.938a1.92 1.913 0 0 1 .948-1.65L69.6 28.318l-24-13.811L18.612 30.05Zm26.748-46.742Zm.504 0z" fill="#ffffff"></path></g></svg></g></g><g opacity="1"><g id="f6488796-c8ab-4fdb-87d7-dc57fcc8a690" transform="translate(0 0)"><svg x="450" y="833" height="90" width="90"><path d="M5.033 3.831h79.93v82.34H5.033Z" fill="#d86613" opacity=".05"></path><path d="M87.483 90H2.517C1.127 90 0 89.144 0 88.087V1.916C0 .858 1.127 0 2.517 0h84.966C88.873 0 90 .858 90 1.916v86.17C90 89.143 88.873 90 87.483 90zM3.85 86.17l82.3.001V3.831H3.85Z" fill="#d86613"></path><path class="cls-1" d="M9.378 27.122h3.789v39.07h-3.79zm10.643 0h3.788v39.07h-3.788zm46.17 0h3.79v39.07h-3.79zm10.646 0h3.789v39.07h-3.79zm-20.72 33.843H33.884a3.2 3.201 0 0 1-3.203-3.201V35.529a3.2 3.201 0 0 1 3.203-3.199h22.233a3.2 3.201 0 0 1 3.2 3.201v22.233a3.2 3.201 0 0 1-3.202 3.2zM34.47 57.177h21.06v-21.06H34.47z" fill="#d86613"></path><path class="cls-1" d="M32.463 28.902h3.789v5.322h-3.789zm7.103 0h3.789v5.322h-3.79zm7.1 0h3.789v5.322h-3.789zm7.103 0h3.789v5.322h-3.79zm-21.306 30.17h3.789v5.321h-3.789zm7.103 0h3.789v5.321h-3.79zm7.1 0h3.789v5.321h-3.789zm7.103 0h3.789v5.321h-3.79z" fill="#d86613"></path><path class="cls-1" d="M27.254 34.11h5.323v3.788h-5.323zm0 7.103h5.323V45h-5.323zm0 7.1h5.323v3.788h-5.323zm0 7.102h5.323v3.788h-5.323zm30.17-21.305h5.323v3.788h-5.322zm0 7.103h5.323V45h-5.322zm0 7.1h5.323v3.788h-5.322zm0 7.102h5.323v3.788h-5.322z" fill="#d86613"></path></svg></g></g><g opacity="1"><g id="47745cb6-f086-4426-82ab-fd29cba28e51" transform="translate(0 0)"><svg x="540" y="833" height="90" width="90"><path d="M5.033 3.831h79.93v82.34H5.033Z" fill="#d86613" opacity=".05"></path><path d="M87.483 90H2.517C1.127 90 0 89.144 0 88.087V1.916C0 .858 1.127 0 2.517 0h84.966C88.873 0 90 .858 90 1.916v86.17C90 89.143 88.873 90 87.483 90zM3.85 86.17l82.3.001V3.831H3.85Z" fill="#d86613"></path><path class="cls-1" d="M9.378 27.122h3.789v39.07h-3.79zm10.643 0h3.788v39.07h-3.788zm46.17 0h3.79v39.07h-3.79zm10.646 0h3.789v39.07h-3.79zm-20.72 33.843H33.884a3.2 3.201 0 0 1-3.203-3.201V35.529a3.2 3.201 0 0 1 3.203-3.199h22.233a3.2 3.201 0 0 1 3.2 3.201v22.233a3.2 3.201 0 0 1-3.202 3.2zM34.47 57.177h21.06v-21.06H34.47z" fill="#d86613"></path><path class="cls-1" d="M32.463 28.902h3.789v5.322h-3.789zm7.103 0h3.789v5.322h-3.79zm7.1 0h3.789v5.322h-3.789zm7.103 0h3.789v5.322h-3.79zm-21.306 30.17h3.789v5.321h-3.789zm7.103 0h3.789v5.321h-3.79zm7.1 0h3.789v5.321h-3.789zm7.103 0h3.789v5.321h-3.79z" fill="#d86613"></path><path class="cls-1" d="M27.254 34.11h5.323v3.788h-5.323zm0 7.103h5.323V45h-5.323zm0 7.1h5.323v3.788h-5.323zm0 7.102h5.323v3.788h-5.323zm30.17-21.305h5.323v3.788h-5.322zm0 7.103h5.323V45h-5.322zm0 7.1h5.323v3.788h-5.322zm0 7.102h5.323v3.788h-5.322z" fill="#d86613"></path></svg></g></g><g opacity="1"><g id="5fe194ef-aaa3-4d99-a304-3c5737985be2" transform="translate(0 0)"><svg x="315" y="1035" height="90" width="90"><defs></defs><path d="M0 0h90v90H0z" fill="#3f8624" data-name="Green Light BG"></path><g fill="#ffffff" data-name="Product Icon"><path class="cls-2" d="m17.4 19.092 8.748 8.76 1.704-1.704-8.76-8.748H25.8V15h-9.6a1.2 1.2 0 0 0-1.2 1.2v9.6h2.4zM73.8 15h-9.6v2.4h6.708l-8.76 8.748 1.704 1.704 8.748-8.76V25.8H75v-9.6a1.2 1.2 0 0 0-1.2-1.2zM26.148 62.148l-8.748 8.76V64.2H15v9.6a1.2 1.2 0 0 0 1.2 1.2h9.6v-2.4h-6.708l8.76-8.748zm46.452 8.76-8.748-8.76-1.704 1.704 8.76 8.748H64.2V75h9.6a1.2 1.2 0 0 0 1.2-1.2v-9.6h-2.4zm-37.08-43.02a11.292 11.292 0 0 1 12.732 2.508 13.5 13.5 0 0 1 3.168 5.148 1.2 1.2 0 0 0 2.088.312 3.996 3.996 0 0 1 3.192-1.668c1.848 0 4.08 1.416 4.308 5.4a1.2 1.2 0 0 0 .96 1.104c4.668.984 7.032 3.6 7.032 7.68 0 3.864-1.692 6.156-5.184 7.008l.564 2.328c4.524-1.092 7.02-4.416 7.02-9.336s-2.856-8.4-8.076-9.828c-.612-4.656-3.696-6.756-6.624-6.756a6.192 6.192 0 0 0-3.72 1.2 15.324 15.324 0 0 0-3.036-4.344 13.728 13.728 0 0 0-15.348-3.024A14.172 14.172 0 0 0 26.46 38.1v.66a9.6 9.6 0 0 0-6.684 9.504v.684a9.948 9.948 0 0 0 6.792 8.808l.792-2.268a7.56 7.56 0 0 1-5.196-6.672v-.552a7.2 7.2 0 0 1 5.892-7.464 1.2 1.2 0 0 0 .9-1.2 12.54 12.54 0 0 1-.096-1.404 11.784 11.784 0 0 1 6.66-10.308Z"></path><path class="cls-2" d="M64.14 51.384a1.2 1.2 0 0 0-.168-1.08A1.2 1.2 0 0 0 63 49.8h-3.6a4.608 4.608 0 0 0-1.344-2.724 2.976 2.976 0 0 0-2.196-.876H43.524c-.312-.972-.912-2.196-1.836-2.4H36.66c-1.068 0-1.776 1.344-2.136 2.4h-1.452a3.06 3.06 0 0 0-2.268.864A4.68 4.68 0 0 0 29.4 50.4v15a1.2 1.2 0 0 0 1.2 1.2h27.6a1.2 1.2 0 0 0 1.128-.828zm-2.808.816L59.4 58.008V52.2ZM57 64.2H31.8V50.4a2.232 2.232 0 0 1 .6-1.572.696.696 0 0 1 .552-.228h2.4a1.2 1.2 0 0 0 1.2-1.128 5.532 5.532 0 0 1 .516-1.272h3.852a7.2 7.2 0 0 1 .468 1.2 1.2 1.2 0 0 0 1.2 1.2h13.296a.648.648 0 0 1 .468.228A2.256 2.256 0 0 1 57 50.4z"></path></g></svg></g></g><g opacity="1"><g id="d7f0cd2a-70f5-45c6-b4fc-40971bb3e8cb" transform="translate(0 0)"><svg x="675" y="1035" height="90" width="90"><path class="cls-1" d="M0 0h90v90H0z" fill="#3b48cc" data-name="Blue Light BG"></path><path class="cls-2" d="M58.14 33.876c0-3.48-6.828-5.088-13.2-5.088s-13.2 1.608-13.2 5.088a1.848 1.848 0 0 0 .06.516v21.66c-.06 3.6 6.78 5.136 13.2 5.136s13.2-1.584 13.2-5.064V33.876ZM44.964 31.2c6.996 0 10.8 1.908 10.8 2.688 0 .78-3.78 2.688-10.8 2.688s-10.8-1.896-10.8-2.688c0-.792 3.804-2.688 10.8-2.688zm10.8 24.936c0 .768-3.792 2.664-10.8 2.664s-10.8-1.896-10.8-2.664v-3.792c2.532 1.38 6.78 2.04 10.8 2.04 4.02 0 8.232-.648 10.8-2.004zm0-6.828c0 .768-3.78 2.688-10.8 2.688s-10.8-1.92-10.8-2.688v-4.584c2.532 1.368 6.78 2.028 10.8 2.028 4.02 0 8.232-.648 10.8-2.004zm0-7.644c0 .78-3.78 2.7-10.8 2.7s-10.8-1.92-10.8-2.7v-4.68c2.556 1.356 6.756 1.98 10.8 1.98s8.292-.648 10.8-2.028zM19.092 72.612H27v2.4H16.2a1.2 1.2 0 0 1-1.2-1.2v-10.8h2.4v7.884l9-8.988 1.68 1.692ZM75 63.012v10.8a1.2 1.2 0 0 1-1.2 1.2H63v-2.4h7.908L62.04 63.72l1.692-1.68 8.868 8.856v-7.884zm0-46.8v10.8h-2.4v-7.92l-8.868 8.868-1.692-1.692 8.856-8.856H63v-2.4h10.8a1.2 1.2 0 0 1 1.2 1.2zM28.08 26.4l-1.68 1.68-9-8.988v7.896H15v-10.8a1.2 1.2 0 0 1 1.2-1.2H27v2.4h-7.908zm-1.488 29.352C19.26 53.112 15.06 49.08 15.06 44.7s4.2-8.4 11.532-11.052l.816 2.256c-6.228 2.244-9.948 5.532-9.948 8.796 0 3.264 3.72 6.552 9.948 8.796zm36.144.264-.768-2.28C68.628 51.492 72.6 48.108 72.6 44.7s-3.972-6.792-10.632-9.048l.768-2.268C70.524 36 75 40.152 75 44.7s-4.476 8.676-12.264 11.316z" fill="#ffffff" data-name="Product Icon-2"></path></svg></g></g></g><g pointer-events="auto"><g opacity="1"><g id="84eae5e1-1f3a-4976-9e0b-c093e188cd67" transform="translate(0 0)"><svg x="653" y="-652" overflow="visible"><g transform="scale(0.4245000000000002) "><svg x="-250" y="-250" overflow="visible"><image xlink:href="https://images.cloudcraft.co/4710fd3f-792d-434d-9d31-af9dc2fcaa59/bitbucket_logo-removebg-preview.png" width="500" height="500"></image></svg></g></svg></g></g><g opacity="1"><g id="a13c491b-bd8d-4e49-a717-87a96974504c" transform="translate(0 0)"><svg x="360" y="-517" overflow="visible"><g transform="scale(0.2830000000000002) "><svg x="-180" y="-180" overflow="visible"><image xlink:href="https://images.cloudcraft.co/4710fd3f-792d-434d-9d31-af9dc2fcaa59/gitmerge-removebg-preview.png" width="360" height="360"></image></svg></g></svg></g></g></g><g pointer-events="auto"><g opacity="1"><g id="9a91e171-44fe-4a22-a920-8da4e214d61e" transform="translate(0 0)"><svg x="360" y="-630" overflow="visible"><g transform="scale(2.1836601342771385) "><circle cx="0" cy="0" fill="transparent" r="23"></circle><svg width="14" height="32" x="-7" y="-16" style="fill: rgb(66, 134, 197);"><svg xmlns="http://www.w3.org/2000/svg" width="14" height="32" viewBox="0 0 14 32"><path d="M13.661 23.196a.61.61 0 0 1-.089.625l-6.25 6.857a.582.582 0 0 1-.411.179.622.622 0 0 1-.429-.179L.143 23.821a.608.608 0 0 1-.089-.625.573.573 0 0 1 .518-.339h4V.571c0-.321.25-.571.571-.571h3.429c.321 0 .571.25.571.571v22.286h4c.232 0 .429.125.518.339z"></path></svg></svg></g></svg></g></g><g opacity="1"><g id="3a2d0db8-584e-43de-b1e6-e9a7265df4ee" transform="translate(0 0)"><svg x="653" y="-540" overflow="visible"><g transform="scale(2.1836601342771385) "><circle cx="0" cy="0" fill="transparent" r="23"></circle><svg width="14" height="32" x="-7" y="-16" style="fill: rgb(66, 134, 197);"><svg xmlns="http://www.w3.org/2000/svg" width="14" height="32" viewBox="0 0 14 32"><path d="M13.661 23.196a.61.61 0 0 1-.089.625l-6.25 6.857a.582.582 0 0 1-.411.179.622.622 0 0 1-.429-.179L.143 23.821a.608.608 0 0 1-.089-.625.573.573 0 0 1 .518-.339h4V.571c0-.321.25-.571.571-.571h3.429c.321 0 .571.25.571.571v22.286h4c.232 0 .429.125.518.339z"></path></svg></svg></g></svg></g></g><g opacity="1"><g id="3978d936-9256-4c9e-a29d-ddc9878f4902" transform="translate(0 0)"><svg x="360" y="-382" overflow="visible"><g transform="scale(2.1836601342771385) "><circle cx="0" cy="0" fill="transparent" r="23"></circle><svg width="14" height="32" x="-7" y="-16" style="fill: rgb(66, 134, 197);"><svg xmlns="http://www.w3.org/2000/svg" width="14" height="32" viewBox="0 0 14 32"><path d="M13.661 23.196a.61.61 0 0 1-.089.625l-6.25 6.857a.582.582 0 0 1-.411.179.622.622 0 0 1-.429-.179L.143 23.821a.608.608 0 0 1-.089-.625.573.573 0 0 1 .518-.339h4V.571c0-.321.25-.571.571-.571h3.429c.321 0 .571.25.571.571v22.286h4c.232 0 .429.125.518.339z"></path></svg></svg></g></svg></g></g><g opacity="1"><g id="ddda0871-5c5a-44dd-aa6e-acd478541404" transform="translate(0 0)"><svg x="653" y="-292" overflow="visible"><g transform="scale(2.1836601342771385) "><circle cx="0" cy="0" fill="transparent" r="23"></circle><svg width="31" height="32" x="-15.5" y="-16" style="fill: rgb(66, 134, 197);"><svg xmlns="http://www.w3.org/2000/svg" width="31" height="32" viewBox="0 0 31 32"><path d="M30.857 15.946a.622.622 0 0 1-.179.429l-6.857 6.321a.578.578 0 0 1-.625.107.573.573 0 0 1-.339-.518v-4H.571A.564.564 0 0 1 0 17.714v-3.429c0-.321.25-.571.571-.571h22.286v-4c0-.232.125-.429.339-.518s.446-.054.625.089l6.857 6.25c.107.107.179.25.179.411z"></path></svg></svg></g></svg></g></g><g opacity="1"><g id="6ab63db9-2881-4b60-be79-46e5fdfc79ff" transform="translate(0 0)"><svg x="765" y="-292" overflow="visible"><g transform="scale(2.1836601342771385) "><circle cx="0" cy="0" fill="transparent" r="23"></circle><svg width="31" height="32" x="-15.5" y="-16" style="fill: rgb(66, 134, 197);"><svg xmlns="http://www.w3.org/2000/svg" width="31" height="32" viewBox="0 0 31 32"><path d="M30.857 15.946a.622.622 0 0 1-.179.429l-6.857 6.321a.578.578 0 0 1-.625.107.573.573 0 0 1-.339-.518v-4H.571A.564.564 0 0 1 0 17.714v-3.429c0-.321.25-.571.571-.571h22.286v-4c0-.232.125-.429.339-.518s.446-.054.625.089l6.857 6.25c.107.107.179.25.179.411z"></path></svg></svg></g></svg></g></g><g opacity="1"><g id="21b06f9e-18be-4260-82fd-691bcea79b19" transform="translate(0 0)"><svg x="833" y="-180" overflow="visible"><g transform="scale(2.1836601342771385) "><circle cx="0" cy="0" fill="transparent" r="23"></circle><svg width="14" height="32" x="-7" y="-16" style="fill: rgb(66, 134, 197);"><svg xmlns="http://www.w3.org/2000/svg" width="14" height="32" viewBox="0 0 14 32"><path d="M13.661 23.196a.61.61 0 0 1-.089.625l-6.25 6.857a.582.582 0 0 1-.411.179.622.622 0 0 1-.429-.179L.143 23.821a.608.608 0 0 1-.089-.625.573.573 0 0 1 .518-.339h4V.571c0-.321.25-.571.571-.571h3.429c.321 0 .571.25.571.571v22.286h4c.232 0 .429.125.518.339z"></path></svg></svg></g></svg></g></g><g opacity="1"><g id="d8fc6258-95ff-4b13-a1f3-51fdbe7bf8fa" transform="translate(0 0)"><svg x="1485" y="1553" overflow="visible"><g transform="scale(2.1836601342771385) "><circle cx="0" cy="0" fill="transparent" r="23"></circle><svg width="14" height="32" x="-7" y="-16" style="fill: rgb(255, 152, 0);"><svg xmlns="http://www.w3.org/2000/svg" width="14" height="32" viewBox="0 0 14 32"><path d="M13.661 23.196a.61.61 0 0 1-.089.625l-6.25 6.857a.582.582 0 0 1-.411.179.622.622 0 0 1-.429-.179L.143 23.821a.608.608 0 0 1-.089-.625.573.573 0 0 1 .518-.339h4V.571c0-.321.25-.571.571-.571h3.429c.321 0 .571.25.571.571v22.286h4c.232 0 .429.125.518.339z"></path></svg></svg></g></svg></g></g><g opacity="1"><g id="346298e8-bf3f-4611-bc9d-3d09c7febad6" transform="translate(0 0)"><svg x="1170" y="1508" overflow="visible"><g transform="scale(2.729575167846423) "><circle cx="0" cy="0" fill="transparent" r="23"></circle><svg width="27" height="32" x="-13.5" y="-16" style="fill: rgb(255, 152, 0);"><svg xmlns="http://www.w3.org/2000/svg" width="27" height="32" viewBox="0 0 27 32"><path d="M16 9.714v8c0 .321-.25.571-.571.571H9.715a.564.564 0 0 1-.571-.571v-1.143c0-.321.25-.571.571-.571h4V9.714c0-.321.25-.571.571-.571h1.143c.321 0 .571.25.571.571zM23.429 16c0-5.357-4.357-9.714-9.714-9.714S4.001 10.643 4.001 16s4.357 9.714 9.714 9.714 9.714-4.357 9.714-9.714zm4 0c0 7.571-6.143 13.714-13.714 13.714S.001 23.571.001 16 6.144 2.286 13.715 2.286 27.429 8.429 27.429 16z"></path></svg></svg></g></svg></g></g><g opacity="1"><g id="d349ebea-70a5-4b63-afe6-29d6b1c3d7ea" transform="translate(0 0)"><svg x="1350" y="1530" overflow="visible"><g transform="scale(2.1836601342771385) "><circle cx="0" cy="0" fill="transparent" r="23"></circle><svg width="14" height="32" x="-7" y="-16" style="fill: rgb(255, 152, 0);"><svg xmlns="http://www.w3.org/2000/svg" width="14" height="32" viewBox="0 0 14 32"><path d="M13.661 23.196a.61.61 0 0 1-.089.625l-6.25 6.857a.582.582 0 0 1-.411.179.622.622 0 0 1-.429-.179L.143 23.821a.608.608 0 0 1-.089-.625.573.573 0 0 1 .518-.339h4V.571c0-.321.25-.571.571-.571h3.429c.321 0 .571.25.571.571v22.286h4c.232 0 .429.125.518.339z"></path></svg></svg></g></svg></g></g><g opacity="1"><g id="fc51e9cb-cd53-433b-a8b8-3919a50b5fc2" transform="translate(0 0)"><svg x="1485" y="-517" overflow="visible"><g transform="scale(2.729575167846423) "><circle cx="0" cy="0" fill="transparent" r="23"></circle><svg width="30" height="32" x="-15" y="-16" style="fill: rgb(255, 152, 0);"><svg xmlns="http://www.w3.org/2000/svg" width="30" height="32" viewBox="0 0 30 32"><path d="M25.143 16.607v5.679A5.145 5.145 0 0 1 20 27.429H5.143A5.145 5.145 0 0 1 0 22.286V7.429a5.145 5.145 0 0 1 5.143-5.143H20c.714 0 1.429.143 2.089.446a.578.578 0 0 1 .321.411.56.56 0 0 1-.161.518l-.875.875a.617.617 0 0 1-.411.179c-.054 0-.107-.018-.161-.036a3.129 3.129 0 0 0-.804-.107H5.141a2.866 2.866 0 0 0-2.857 2.857v14.857a2.866 2.866 0 0 0 2.857 2.857h14.857a2.866 2.866 0 0 0 2.857-2.857V17.75c0-.143.054-.286.161-.393l1.143-1.143a.571.571 0 0 1 .411-.179c.071 0 .143.018.214.054a.56.56 0 0 1 .357.518zm4.125-8.732L14.732 22.411a1.424 1.424 0 0 1-2.036 0l-7.679-7.679a1.424 1.424 0 0 1 0-2.036l1.964-1.964a1.424 1.424 0 0 1 2.036 0l4.696 4.696L25.267 3.874a1.424 1.424 0 0 1 2.036 0l1.964 1.964a1.424 1.424 0 0 1 0 2.036z"></path></svg></svg></g></svg></g></g><g opacity="1"><g id="851a916a-2fbe-4cda-b90c-9d990fd27155" transform="translate(0 0)"><svg x="158" y="900" overflow="visible"><g transform="scale(2.1836601342771385) "><circle cx="0" cy="0" fill="transparent" r="23"></circle><svg width="26" height="32" x="-13" y="-16" style="fill: rgb(103, 58, 183);"><svg xmlns="http://www.w3.org/2000/svg" width="26" height="32" viewBox="0 0 26 32"><path d="M26.286 17.143c0 .607-.232 1.196-.661 1.625L14 30.393c-.429.411-1.018.661-1.625.661s-1.179-.25-1.607-.661l-1.339-1.339c-.429-.429-.679-1.018-.679-1.625s.25-1.196.679-1.625l5.232-5.232H2.09c-1.286 0-2.089-1.071-2.089-2.286V16c0-1.214.804-2.286 2.089-2.286h12.571l-5.232-5.25a2.24 2.24 0 0 1 0-3.214l1.339-1.339c.429-.429 1-.679 1.607-.679s1.196.25 1.625.679l11.625 11.625c.429.411.661 1 .661 1.607z"></path></svg></svg></g></svg></g></g><g opacity="1"><g id="394fee63-0d26-41c0-8142-e62fc1ca4678" transform="translate(0 0)"><svg x="1733" y="-585" overflow="visible"><g transform="scale(2.1836601342771385) "><circle cx="0" cy="0" fill="transparent" r="23"></circle><svg width="31" height="32" x="-15.5" y="-16" style="fill: rgb(255, 152, 0);"><svg xmlns="http://www.w3.org/2000/svg" width="31" height="32" viewBox="0 0 31 32"><path d="M30.857 15.946a.622.622 0 0 1-.179.429l-6.857 6.321a.578.578 0 0 1-.625.107.573.573 0 0 1-.339-.518v-4H.571A.564.564 0 0 1 0 17.714v-3.429c0-.321.25-.571.571-.571h22.286v-4c0-.232.125-.429.339-.518s.446-.054.625.089l6.857 6.25c.107.107.179.25.179.411z"></path></svg></svg></g></svg></g></g><g opacity="1"><g id="402e3b3f-65ba-4e44-a480-34c6d207bdcd" transform="translate(0 0)"><svg x="1485" y="-787" overflow="visible"><g transform="scale(2.1836601342771385) "><circle cx="0" cy="0" fill="transparent" r="23"></circle><svg width="14" height="32" x="-7" y="-16" style="fill: rgb(255, 152, 0);"><svg xmlns="http://www.w3.org/2000/svg" width="14" height="32" viewBox="0 0 14 32"><path d="M13.661 23.196a.61.61 0 0 1-.089.625l-6.25 6.857a.582.582 0 0 1-.411.179.622.622 0 0 1-.429-.179L.143 23.821a.608.608 0 0 1-.089-.625.573.573 0 0 1 .518-.339h4V.571c0-.321.25-.571.571-.571h3.429c.321 0 .571.25.571.571v22.286h4c.232 0 .429.125.518.339z"></path></svg></svg></g></svg></g></g><g opacity="1"><g id="5843e4fc-b59d-430e-a660-08f0e1607db0" transform="translate(0 0)"><svg x="1980" y="-765" overflow="visible"><g transform="scale(2.1836601342771385) "><circle cx="0" cy="0" fill="transparent" r="23"></circle><svg width="14" height="32" x="-7" y="-16" style="fill: rgb(255, 152, 0);"><svg xmlns="http://www.w3.org/2000/svg" width="14" height="32" viewBox="0 0 14 32"><path d="M13.661 23.196a.61.61 0 0 1-.089.625l-6.25 6.857a.582.582 0 0 1-.411.179.622.622 0 0 1-.429-.179L.143 23.821a.608.608 0 0 1-.089-.625.573.573 0 0 1 .518-.339h4V.571c0-.321.25-.571.571-.571h3.429c.321 0 .571.25.571.571v22.286h4c.232 0 .429.125.518.339z"></path></svg></svg></g></svg></g></g><g opacity="1"><g id="eb6356bd-c9c4-44e2-bf42-98f41f2adea7" transform="translate(0 0)"><svg x="1485" y="-607" overflow="visible"><g transform="scale(2.1836601342771385) "><circle cx="0" cy="0" fill="transparent" r="23"></circle><svg width="14" height="32" x="-7" y="-16" style="fill: rgb(255, 152, 0);"><svg xmlns="http://www.w3.org/2000/svg" width="14" height="32" viewBox="0 0 14 32"><path d="M13.661 23.196a.61.61 0 0 1-.089.625l-6.25 6.857a.582.582 0 0 1-.411.179.622.622 0 0 1-.429-.179L.143 23.821a.608.608 0 0 1-.089-.625.573.573 0 0 1 .518-.339h4V.571c0-.321.25-.571.571-.571h3.429c.321 0 .571.25.571.571v22.286h4c.232 0 .429.125.518.339z"></path></svg></svg></g></svg></g></g><g opacity="1"><g id="ec37793e-ca64-470f-ab01-2b4a57b41108" transform="translate(0 0)"><svg x="1980" y="-405" overflow="visible"><g transform="scale(2.1836601342771385) "><circle cx="0" cy="0" fill="transparent" r="23"></circle><svg width="14" height="32" x="-7" y="-16" style="fill: rgb(255, 152, 0);"><svg xmlns="http://www.w3.org/2000/svg" width="14" height="32" viewBox="0 0 14 32"><path d="M13.661 23.196a.61.61 0 0 1-.089.625l-6.25 6.857a.582.582 0 0 1-.411.179.622.622 0 0 1-.429-.179L.143 23.821a.608.608 0 0 1-.089-.625.573.573 0 0 1 .518-.339h4V.571c0-.321.25-.571.571-.571h3.429c.321 0 .571.25.571.571v22.286h4c.232 0 .429.125.518.339z"></path></svg></svg></g></svg></g></g><g opacity="1"><g id="6966c020-9e8b-4c1c-9fa1-3efcacba3a0a" transform="translate(0 0)"><svg x="1980" y="-585" overflow="visible"><g transform="scale(2.1836601342771385) "><circle cx="0" cy="0" fill="transparent" r="23"></circle><svg width="14" height="32" x="-7" y="-16" style="fill: rgb(255, 152, 0);"><svg xmlns="http://www.w3.org/2000/svg" width="14" height="32" viewBox="0 0 14 32"><path d="M13.661 23.196a.61.61 0 0 1-.089.625l-6.25 6.857a.582.582 0 0 1-.411.179.622.622 0 0 1-.429-.179L.143 23.821a.608.608 0 0 1-.089-.625.573.573 0 0 1 .518-.339h4V.571c0-.321.25-.571.571-.571h3.429c.321 0 .571.25.571.571v22.286h4c.232 0 .429.125.518.339z"></path></svg></svg></g></svg></g></g><g opacity="1"><g id="08b81c59-2fc0-4258-82e0-36debe2519d0" transform="translate(0 0)"><svg x="1485" y="-427" overflow="visible"><g transform="scale(2.1836601342771385) "><circle cx="0" cy="0" fill="transparent" r="23"></circle><svg width="14" height="32" x="-7" y="-16" style="fill: rgb(255, 152, 0);"><svg xmlns="http://www.w3.org/2000/svg" width="14" height="32" viewBox="0 0 14 32"><path d="M13.661 23.196a.61.61 0 0 1-.089.625l-6.25 6.857a.582.582 0 0 1-.411.179.622.622 0 0 1-.429-.179L.143 23.821a.608.608 0 0 1-.089-.625.573.573 0 0 1 .518-.339h4V.571c0-.321.25-.571.571-.571h3.429c.321 0 .571.25.571.571v22.286h4c.232 0 .429.125.518.339z"></path></svg></svg></g></svg></g></g><g opacity="1"><g id="64028ed1-2d2e-4638-af9a-e05311902067" transform="translate(0 0)"><svg x="1980" y="-675" overflow="visible"><g transform="scale(1.118033988749895) "><circle cx="0" cy="0" fill="transparent" r="40"></circle><svg width="100" height="100" x="-50" y="-50" style="fill: rgb(255, 255, 255);"><svg id="Layer_1" data-name="Layer 1" xmlns="http://www.w3.org/2000/svg" width="100" height="100" viewBox="0 0 100 100"><g><path fill="#b7ca9d" d="m29.62 60.37-4.89-.83-8.68.77 4.27 15.1 9.3-15.04z"></path><path fill="#4b612c" d="M16.05 43.13v13.71l4.39.63L29 50.43l-8.56-7.92-4.39.62z"></path><path fill="#759c3e" d="m20.44 61.3 9.18-.93v13.74l-9.18.66-3.54-7.16 3.54-6.31z"></path><path fill="#3c4929" d="m24.85 40.47 4.77-.8-9.18-15.22-4.39 15.24 8.8.78z"></path><path fill="#759c3e" d="m20.44 23.77 9.18 2.16v13.74l-9.18-.92V23.77zM20.44 42.54l9.18.61V56.9l-9.18.62V42.54z"></path><path fill="#3c4929" d="m29.62 35.59 7.02-1.64-9.62-13.13-6.58 13.48 9.18 1.29z"></path><path fill="#759c3e" d="m27.02 20.5 9.62 2.7v10.75l-9.62-1.62V20.5z"></path><path fill="#b7ca9d" d="m36.64 66.03-7-1.64-9.2 1.3 6.58 13.86 9.62-13.52z"></path><path fill="#759c3e" d="m27.02 67.67 9.62-1.62v10.79l-9.62 2.71-8.7-6.75 8.7-5.13z"></path><path fill="#3c4929" d="m83.88 39.68-8.8.78-11.73-1.96 9.56-18.04 10.97 19.22z"></path><path fill="#4b612c" d="M20.44 65.69v-4.43l-4.39-.95v13.71l10.97 5.49V67.66l-6.58-1.97z"></path><path fill="#b7ca9d" d="m83.9 60.32-8.8-.78-11.75 1.97 9.56 17.67L83.9 60.32z"></path><path fill="#4b612c" d="m72.91 20.46-9.56 2.69V38.5l9.56-1.15 10.4-6.28-10.4-10.61zM72.91 41.47l-9.56.78V57.6l9.56.76 10.4-8.08-10.4-8.81zM72.91 62.73l-9.56-1.16v15.35l9.56 2.7 9.62-10.97-9.62-5.92z"></path><path fill="#3c4929" d="m39.91 16.05-9.61 15.3 9.78 1.79 9.91-2.31-10.08-14.78z"></path><path fill="#3c4929" d="m69.64 36.63-9.79 1.28-19.94-3.34L49.99 9.1l19.65 27.53z"></path><path fill="#4b612c" d="m49.99 61.68 18.87-11.65-18.87-11.74-10.08 1.44v20.52l10.08 1.43z"></path><path fill="#759c3e" d="M49.99 38.29v23.39l19.65-2.8V41.09l-19.65-2.8z"></path><path fill="#b7ca9d" d="m69.64 63.38-9.79-1.29-19.94 3.35 10.08 25.55 19.65-27.61z"></path><path fill="#b7ca9d" d="m49.93 69.14-9.78-2.29-9.81 1.8 9.2 16.73 10.39-16.24z"></path><path fill="#4b612c" d="M30.29 68.64v12.51L49.99 91l18.37-18.2-18.37-5.19-10.08-2.17v6.08l-9.62-2.88zM27.02 32.33V20.5l-10.97 5.48v13.71l4.39-.94V34.3l6.58-1.97zM39.91 28.47v6.1l10.08-2.16 18.14-5.19-18.14-18.2-19.7 9.84v12.49l9.62-2.88z"></path><path fill="#759c3e" d="M49.99 9v23.41l19.65 4.22V18.82L49.99 9zM83.95 39.7V25.98l-11.04-5.52v16.87l11.04 2.37zM83.95 56.84v-13.7l-11.04-1.58v16.86l11.04-1.58zM49.99 67.61v23.38l19.65-9.83V63.38l-19.65 4.23zM83.95 74.01v-13.7l-11.04 2.37v16.85l11.04-5.52z"></path></g></svg></svg></g></svg></g></g><g opacity="1"><g id="46dd2e8c-aaaf-4a2f-89ad-47a544b1655f" transform="translate(0 0)"><svg x="1485" y="-337" overflow="visible"><g transform="scale(1.118033988749895) "><circle cx="0" cy="0" fill="transparent" r="40"></circle><svg width="100" height="100" x="-50" y="-50" style="fill: rgb(255, 255, 255);"><svg id="Layer_1" data-name="Layer 1" xmlns="http://www.w3.org/2000/svg" width="100" height="100" viewBox="0 0 100 100"><g><path fill="#b7ca9d" d="m29.62 60.37-4.89-.83-8.68.77 4.27 15.1 9.3-15.04z"></path><path fill="#4b612c" d="M16.05 43.13v13.71l4.39.63L29 50.43l-8.56-7.92-4.39.62z"></path><path fill="#759c3e" d="m20.44 61.3 9.18-.93v13.74l-9.18.66-3.54-7.16 3.54-6.31z"></path><path fill="#3c4929" d="m24.85 40.47 4.77-.8-9.18-15.22-4.39 15.24 8.8.78z"></path><path fill="#759c3e" d="m20.44 23.77 9.18 2.16v13.74l-9.18-.92V23.77zM20.44 42.54l9.18.61V56.9l-9.18.62V42.54z"></path><path fill="#3c4929" d="m29.62 35.59 7.02-1.64-9.62-13.13-6.58 13.48 9.18 1.29z"></path><path fill="#759c3e" d="m27.02 20.5 9.62 2.7v10.75l-9.62-1.62V20.5z"></path><path fill="#b7ca9d" d="m36.64 66.03-7-1.64-9.2 1.3 6.58 13.86 9.62-13.52z"></path><path fill="#759c3e" d="m27.02 67.67 9.62-1.62v10.79l-9.62 2.71-8.7-6.75 8.7-5.13z"></path><path fill="#3c4929" d="m83.88 39.68-8.8.78-11.73-1.96 9.56-18.04 10.97 19.22z"></path><path fill="#4b612c" d="M20.44 65.69v-4.43l-4.39-.95v13.71l10.97 5.49V67.66l-6.58-1.97z"></path><path fill="#b7ca9d" d="m83.9 60.32-8.8-.78-11.75 1.97 9.56 17.67L83.9 60.32z"></path><path fill="#4b612c" d="m72.91 20.46-9.56 2.69V38.5l9.56-1.15 10.4-6.28-10.4-10.61zM72.91 41.47l-9.56.78V57.6l9.56.76 10.4-8.08-10.4-8.81zM72.91 62.73l-9.56-1.16v15.35l9.56 2.7 9.62-10.97-9.62-5.92z"></path><path fill="#3c4929" d="m39.91 16.05-9.61 15.3 9.78 1.79 9.91-2.31-10.08-14.78z"></path><path fill="#3c4929" d="m69.64 36.63-9.79 1.28-19.94-3.34L49.99 9.1l19.65 27.53z"></path><path fill="#4b612c" d="m49.99 61.68 18.87-11.65-18.87-11.74-10.08 1.44v20.52l10.08 1.43z"></path><path fill="#759c3e" d="M49.99 38.29v23.39l19.65-2.8V41.09l-19.65-2.8z"></path><path fill="#b7ca9d" d="m69.64 63.38-9.79-1.29-19.94 3.35 10.08 25.55 19.65-27.61z"></path><path fill="#b7ca9d" d="m49.93 69.14-9.78-2.29-9.81 1.8 9.2 16.73 10.39-16.24z"></path><path fill="#4b612c" d="M30.29 68.64v12.51L49.99 91l18.37-18.2-18.37-5.19-10.08-2.17v6.08l-9.62-2.88zM27.02 32.33V20.5l-10.97 5.48v13.71l4.39-.94V34.3l6.58-1.97zM39.91 28.47v6.1l10.08-2.16 18.14-5.19-18.14-18.2-19.7 9.84v12.49l9.62-2.88z"></path><path fill="#759c3e" d="M49.99 9v23.41l19.65 4.22V18.82L49.99 9zM83.95 39.7V25.98l-11.04-5.52v16.87l11.04 2.37zM83.95 56.84v-13.7l-11.04-1.58v16.86l11.04-1.58zM49.99 67.61v23.38l19.65-9.83V63.38l-19.65 4.23zM83.95 74.01v-13.7l-11.04 2.37v16.85l11.04-5.52z"></path></g></svg></svg></g></svg></g></g><g opacity="1"><g id="82465c63-18e3-4fce-9e84-adeed96b411a" transform="translate(0 0)"><svg x="2228" y="-585" overflow="visible"><g transform="scale(2.1836601342771385) "><circle cx="0" cy="0" fill="transparent" r="23"></circle><svg width="29" height="32" x="-14.5" y="-16" style="fill: rgb(255, 152, 0);"><svg xmlns="http://www.w3.org/2000/svg" width="29" height="32" viewBox="0 0 29 32"><path d="M27.429 16v2.286c0 1.214-.804 2.286-2.089 2.286H12.769l5.232 5.25a2.24 2.24 0 0 1 0 3.214l-1.339 1.357c-.411.411-1 .661-1.607.661s-1.196-.25-1.625-.661L1.805 18.75c-.411-.411-.661-1-.661-1.607s.25-1.196.661-1.625L13.43 3.911c.429-.429 1.018-.679 1.625-.679s1.179.25 1.607.679l1.339 1.321c.429.429.679 1.018.679 1.625s-.25 1.196-.679 1.625l-5.232 5.232H25.34c1.286 0 2.089 1.071 2.089 2.286z"></path></svg></svg></g></svg></g></g><g opacity="1"><g id="289c0944-5f90-4975-a5bf-aff6a5b7d868" transform="translate(0 0)"><svg x="1485" y="-697" overflow="visible"><g transform="scale(1.118033988749895) "><circle cx="0" cy="0" fill="transparent" r="40"></circle><svg width="100" height="100" x="-50" y="-50" style="fill: rgb(255, 255, 255);"><svg id="Layer_1" data-name="Layer 1" xmlns="http://www.w3.org/2000/svg" width="100" height="100" viewBox="0 0 100 100"><g><path fill="#b7ca9d" d="m29.62 60.37-4.89-.83-8.68.77 4.27 15.1 9.3-15.04z"></path><path fill="#4b612c" d="M16.05 43.13v13.71l4.39.63L29 50.43l-8.56-7.92-4.39.62z"></path><path fill="#759c3e" d="m20.44 61.3 9.18-.93v13.74l-9.18.66-3.54-7.16 3.54-6.31z"></path><path fill="#3c4929" d="m24.85 40.47 4.77-.8-9.18-15.22-4.39 15.24 8.8.78z"></path><path fill="#759c3e" d="m20.44 23.77 9.18 2.16v13.74l-9.18-.92V23.77zM20.44 42.54l9.18.61V56.9l-9.18.62V42.54z"></path><path fill="#3c4929" d="m29.62 35.59 7.02-1.64-9.62-13.13-6.58 13.48 9.18 1.29z"></path><path fill="#759c3e" d="m27.02 20.5 9.62 2.7v10.75l-9.62-1.62V20.5z"></path><path fill="#b7ca9d" d="m36.64 66.03-7-1.64-9.2 1.3 6.58 13.86 9.62-13.52z"></path><path fill="#759c3e" d="m27.02 67.67 9.62-1.62v10.79l-9.62 2.71-8.7-6.75 8.7-5.13z"></path><path fill="#3c4929" d="m83.88 39.68-8.8.78-11.73-1.96 9.56-18.04 10.97 19.22z"></path><path fill="#4b612c" d="M20.44 65.69v-4.43l-4.39-.95v13.71l10.97 5.49V67.66l-6.58-1.97z"></path><path fill="#b7ca9d" d="m83.9 60.32-8.8-.78-11.75 1.97 9.56 17.67L83.9 60.32z"></path><path fill="#4b612c" d="m72.91 20.46-9.56 2.69V38.5l9.56-1.15 10.4-6.28-10.4-10.61zM72.91 41.47l-9.56.78V57.6l9.56.76 10.4-8.08-10.4-8.81zM72.91 62.73l-9.56-1.16v15.35l9.56 2.7 9.62-10.97-9.62-5.92z"></path><path fill="#3c4929" d="m39.91 16.05-9.61 15.3 9.78 1.79 9.91-2.31-10.08-14.78z"></path><path fill="#3c4929" d="m69.64 36.63-9.79 1.28-19.94-3.34L49.99 9.1l19.65 27.53z"></path><path fill="#4b612c" d="m49.99 61.68 18.87-11.65-18.87-11.74-10.08 1.44v20.52l10.08 1.43z"></path><path fill="#759c3e" d="M49.99 38.29v23.39l19.65-2.8V41.09l-19.65-2.8z"></path><path fill="#b7ca9d" d="m69.64 63.38-9.79-1.29-19.94 3.35 10.08 25.55 19.65-27.61z"></path><path fill="#b7ca9d" d="m49.93 69.14-9.78-2.29-9.81 1.8 9.2 16.73 10.39-16.24z"></path><path fill="#4b612c" d="M30.29 68.64v12.51L49.99 91l18.37-18.2-18.37-5.19-10.08-2.17v6.08l-9.62-2.88zM27.02 32.33V20.5l-10.97 5.48v13.71l4.39-.94V34.3l6.58-1.97zM39.91 28.47v6.1l10.08-2.16 18.14-5.19-18.14-18.2-19.7 9.84v12.49l9.62-2.88z"></path><path fill="#759c3e" d="M49.99 9v23.41l19.65 4.22V18.82L49.99 9zM83.95 39.7V25.98l-11.04-5.52v16.87l11.04 2.37zM83.95 56.84v-13.7l-11.04-1.58v16.86l11.04-1.58zM49.99 67.61v23.38l19.65-9.83V63.38l-19.65 4.23zM83.95 74.01v-13.7l-11.04 2.37v16.85l11.04-5.52z"></path></g></svg></svg></g></svg></g></g><g opacity="1"><g id="4159b69c-2276-4fe1-880d-ee27df3314ed" transform="translate(0 0)"><svg x="1980" y="-495" overflow="visible"><g transform="scale(1.118033988749895) "><circle cx="0" cy="0" fill="transparent" r="40"></circle><svg width="100" height="100" x="-50" y="-50" style="fill: rgb(255, 255, 255);"><svg id="Layer_1" data-name="Layer 1" xmlns="http://www.w3.org/2000/svg" width="100" height="100" viewBox="0 0 100 100"><g><path fill="#b7ca9d" d="m29.62 60.37-4.89-.83-8.68.77 4.27 15.1 9.3-15.04z"></path><path fill="#4b612c" d="M16.05 43.13v13.71l4.39.63L29 50.43l-8.56-7.92-4.39.62z"></path><path fill="#759c3e" d="m20.44 61.3 9.18-.93v13.74l-9.18.66-3.54-7.16 3.54-6.31z"></path><path fill="#3c4929" d="m24.85 40.47 4.77-.8-9.18-15.22-4.39 15.24 8.8.78z"></path><path fill="#759c3e" d="m20.44 23.77 9.18 2.16v13.74l-9.18-.92V23.77zM20.44 42.54l9.18.61V56.9l-9.18.62V42.54z"></path><path fill="#3c4929" d="m29.62 35.59 7.02-1.64-9.62-13.13-6.58 13.48 9.18 1.29z"></path><path fill="#759c3e" d="m27.02 20.5 9.62 2.7v10.75l-9.62-1.62V20.5z"></path><path fill="#b7ca9d" d="m36.64 66.03-7-1.64-9.2 1.3 6.58 13.86 9.62-13.52z"></path><path fill="#759c3e" d="m27.02 67.67 9.62-1.62v10.79l-9.62 2.71-8.7-6.75 8.7-5.13z"></path><path fill="#3c4929" d="m83.88 39.68-8.8.78-11.73-1.96 9.56-18.04 10.97 19.22z"></path><path fill="#4b612c" d="M20.44 65.69v-4.43l-4.39-.95v13.71l10.97 5.49V67.66l-6.58-1.97z"></path><path fill="#b7ca9d" d="m83.9 60.32-8.8-.78-11.75 1.97 9.56 17.67L83.9 60.32z"></path><path fill="#4b612c" d="m72.91 20.46-9.56 2.69V38.5l9.56-1.15 10.4-6.28-10.4-10.61zM72.91 41.47l-9.56.78V57.6l9.56.76 10.4-8.08-10.4-8.81zM72.91 62.73l-9.56-1.16v15.35l9.56 2.7 9.62-10.97-9.62-5.92z"></path><path fill="#3c4929" d="m39.91 16.05-9.61 15.3 9.78 1.79 9.91-2.31-10.08-14.78z"></path><path fill="#3c4929" d="m69.64 36.63-9.79 1.28-19.94-3.34L49.99 9.1l19.65 27.53z"></path><path fill="#4b612c" d="m49.99 61.68 18.87-11.65-18.87-11.74-10.08 1.44v20.52l10.08 1.43z"></path><path fill="#759c3e" d="M49.99 38.29v23.39l19.65-2.8V41.09l-19.65-2.8z"></path><path fill="#b7ca9d" d="m69.64 63.38-9.79-1.29-19.94 3.35 10.08 25.55 19.65-27.61z"></path><path fill="#b7ca9d" d="m49.93 69.14-9.78-2.29-9.81 1.8 9.2 16.73 10.39-16.24z"></path><path fill="#4b612c" d="M30.29 68.64v12.51L49.99 91l18.37-18.2-18.37-5.19-10.08-2.17v6.08l-9.62-2.88zM27.02 32.33V20.5l-10.97 5.48v13.71l4.39-.94V34.3l6.58-1.97zM39.91 28.47v6.1l10.08-2.16 18.14-5.19-18.14-18.2-19.7 9.84v12.49l9.62-2.88z"></path><path fill="#759c3e" d="M49.99 9v23.41l19.65 4.22V18.82L49.99 9zM83.95 39.7V25.98l-11.04-5.52v16.87l11.04 2.37zM83.95 56.84v-13.7l-11.04-1.58v16.86l11.04-1.58zM49.99 67.61v23.38l19.65-9.83V63.38l-19.65 4.23zM83.95 74.01v-13.7l-11.04 2.37v16.85l11.04-5.52z"></path></g></svg></svg></g></svg></g></g><g opacity="1"><g id="38f26ce5-1613-4940-9954-7e2b5c6a12e7" transform="translate(0 0)"><svg x="1980" y="-315" overflow="visible"><g transform="scale(1.118033988749895) "><circle cx="0" cy="0" fill="transparent" r="40"></circle><svg width="100" height="100" x="-50" y="-50" style="fill: rgb(255, 255, 255);"><svg id="Layer_1" data-name="Layer 1" xmlns="http://www.w3.org/2000/svg" width="100" height="100" viewBox="0 0 100 100"><g><path fill="#b7ca9d" d="m29.62 60.37-4.89-.83-8.68.77 4.27 15.1 9.3-15.04z"></path><path fill="#4b612c" d="M16.05 43.13v13.71l4.39.63L29 50.43l-8.56-7.92-4.39.62z"></path><path fill="#759c3e" d="m20.44 61.3 9.18-.93v13.74l-9.18.66-3.54-7.16 3.54-6.31z"></path><path fill="#3c4929" d="m24.85 40.47 4.77-.8-9.18-15.22-4.39 15.24 8.8.78z"></path><path fill="#759c3e" d="m20.44 23.77 9.18 2.16v13.74l-9.18-.92V23.77zM20.44 42.54l9.18.61V56.9l-9.18.62V42.54z"></path><path fill="#3c4929" d="m29.62 35.59 7.02-1.64-9.62-13.13-6.58 13.48 9.18 1.29z"></path><path fill="#759c3e" d="m27.02 20.5 9.62 2.7v10.75l-9.62-1.62V20.5z"></path><path fill="#b7ca9d" d="m36.64 66.03-7-1.64-9.2 1.3 6.58 13.86 9.62-13.52z"></path><path fill="#759c3e" d="m27.02 67.67 9.62-1.62v10.79l-9.62 2.71-8.7-6.75 8.7-5.13z"></path><path fill="#3c4929" d="m83.88 39.68-8.8.78-11.73-1.96 9.56-18.04 10.97 19.22z"></path><path fill="#4b612c" d="M20.44 65.69v-4.43l-4.39-.95v13.71l10.97 5.49V67.66l-6.58-1.97z"></path><path fill="#b7ca9d" d="m83.9 60.32-8.8-.78-11.75 1.97 9.56 17.67L83.9 60.32z"></path><path fill="#4b612c" d="m72.91 20.46-9.56 2.69V38.5l9.56-1.15 10.4-6.28-10.4-10.61zM72.91 41.47l-9.56.78V57.6l9.56.76 10.4-8.08-10.4-8.81zM72.91 62.73l-9.56-1.16v15.35l9.56 2.7 9.62-10.97-9.62-5.92z"></path><path fill="#3c4929" d="m39.91 16.05-9.61 15.3 9.78 1.79 9.91-2.31-10.08-14.78z"></path><path fill="#3c4929" d="m69.64 36.63-9.79 1.28-19.94-3.34L49.99 9.1l19.65 27.53z"></path><path fill="#4b612c" d="m49.99 61.68 18.87-11.65-18.87-11.74-10.08 1.44v20.52l10.08 1.43z"></path><path fill="#759c3e" d="M49.99 38.29v23.39l19.65-2.8V41.09l-19.65-2.8z"></path><path fill="#b7ca9d" d="m69.64 63.38-9.79-1.29-19.94 3.35 10.08 25.55 19.65-27.61z"></path><path fill="#b7ca9d" d="m49.93 69.14-9.78-2.29-9.81 1.8 9.2 16.73 10.39-16.24z"></path><path fill="#4b612c" d="M30.29 68.64v12.51L49.99 91l18.37-18.2-18.37-5.19-10.08-2.17v6.08l-9.62-2.88zM27.02 32.33V20.5l-10.97 5.48v13.71l4.39-.94V34.3l6.58-1.97zM39.91 28.47v6.1l10.08-2.16 18.14-5.19-18.14-18.2-19.7 9.84v12.49l9.62-2.88z"></path><path fill="#759c3e" d="M49.99 9v23.41l19.65 4.22V18.82L49.99 9zM83.95 39.7V25.98l-11.04-5.52v16.87l11.04 2.37zM83.95 56.84v-13.7l-11.04-1.58v16.86l11.04-1.58zM49.99 67.61v23.38l19.65-9.83V63.38l-19.65 4.23zM83.95 74.01v-13.7l-11.04 2.37v16.85l11.04-5.52z"></path></g></svg></svg></g></svg></g></g><g opacity="1"><g id="371521a4-7e4c-4d8b-8bd5-6e291ebb4d42" transform="translate(0 0)"><svg x="1485" y="-225" overflow="visible"><g transform="scale(2.1836601342771385) "><circle cx="0" cy="0" fill="transparent" r="23"></circle><svg width="14" height="32" x="-7" y="-16" style="fill: rgb(255, 152, 0);"><svg xmlns="http://www.w3.org/2000/svg" width="14" height="32" viewBox="0 0 14 32"><path d="M13.661 23.196a.61.61 0 0 1-.089.625l-6.25 6.857a.582.582 0 0 1-.411.179.622.622 0 0 1-.429-.179L.143 23.821a.608.608 0 0 1-.089-.625.573.573 0 0 1 .518-.339h4V.571c0-.321.25-.571.571-.571h3.429c.321 0 .571.25.571.571v22.286h4c.232 0 .429.125.518.339z"></path></svg></svg></g></svg></g></g><g opacity="1"><g id="8a3e6127-bf71-460a-b48a-9f85a0ba7e82" transform="translate(0 0)"><svg x="1148" y="-607" overflow="visible"><g transform="scale(1.118033988749895) "><circle cx="0" cy="0" fill="transparent" r="40"></circle><svg width="100" height="100" x="-50" y="-50" style="fill: rgb(255, 255, 255);"><svg id="Layer_1" data-name="Layer 1" xmlns="http://www.w3.org/2000/svg" width="100" height="100" viewBox="0 0 100 100"><g><path fill="#b7ca9d" d="m49.33 60.65-33.97 4.22 9.54 14.38L60.21 62l-10.88-1.35z"></path><path fill="#3c4929" d="m49.33 40.27 33.96-4.22-9.54-14.38-35.31 17.24 10.89 1.36z"></path><path fill="#4b612c" d="m38.44 38.91 35.31-5.72V21.67l-35.31 9.55v7.69zM15.36 55.26l33.97 3.4 33.32-8.2-33.32-8.2-33.97 3.39v9.61z"></path><path fill="#759c3e" d="m83.29 55.26-33.96 3.4v-16.4l33.96 3.39v9.61z"></path><path fill="#3c4929" d="M15.36 36.05 49.33 9.46l18.08 21.82-35.57 6.82-16.48-2.05z"></path><path fill="#4b612c" d="M15.36 26.44 49.33 9.46v16.4L15.36 36.05v-9.61z"></path><path fill="#759c3e" d="m73.75 21.67 9.54 4.77v9.61l-9.54-2.86V21.67zM60.21 62 24.9 67.73v11.52l35.31-9.56V62zM67.41 31.28l-18.08-5.42V9.46l18.08 9.04v12.78z"></path><path fill="#b7ca9d" d="M83.29 64.87 49.33 91.46 31.25 69.63l35.56-6.81 16.48 2.05z"></path><path fill="#759c3e" d="M83.29 74.47 49.33 91.46v-16.4l33.96-10.19v9.6z"></path><path fill="#4b612c" d="m31.25 69.63 18.08 5.43v16.4l-18.08-9.04V69.63zM24.9 79.25l-9.54-4.78v-9.6l9.54 2.86v11.52z"></path></g></svg></svg></g></svg></g></g><g opacity="1"><g id="3a06af70-54bc-4654-8284-9b0caa618e84" transform="translate(0 0)"><svg x="2318" y="-585" overflow="visible"><g transform="scale(1.118033988749895) "><circle cx="0" cy="0" fill="transparent" r="40"></circle><svg width="100" height="100" x="-50" y="-50" style="fill: rgb(255, 255, 255);"><svg id="Layer_1" data-name="Layer 1" xmlns="http://www.w3.org/2000/svg" width="100" height="100" viewBox="0 0 100 100"><g><path fill="#b7ca9d" d="m49.33 60.65-33.97 4.22 9.54 14.38L60.21 62l-10.88-1.35z"></path><path fill="#3c4929" d="m49.33 40.27 33.96-4.22-9.54-14.38-35.31 17.24 10.89 1.36z"></path><path fill="#4b612c" d="m38.44 38.91 35.31-5.72V21.67l-35.31 9.55v7.69zM15.36 55.26l33.97 3.4 33.32-8.2-33.32-8.2-33.97 3.39v9.61z"></path><path fill="#759c3e" d="m83.29 55.26-33.96 3.4v-16.4l33.96 3.39v9.61z"></path><path fill="#3c4929" d="M15.36 36.05 49.33 9.46l18.08 21.82-35.57 6.82-16.48-2.05z"></path><path fill="#4b612c" d="M15.36 26.44 49.33 9.46v16.4L15.36 36.05v-9.61z"></path><path fill="#759c3e" d="m73.75 21.67 9.54 4.77v9.61l-9.54-2.86V21.67zM60.21 62 24.9 67.73v11.52l35.31-9.56V62zM67.41 31.28l-18.08-5.42V9.46l18.08 9.04v12.78z"></path><path fill="#b7ca9d" d="M83.29 64.87 49.33 91.46 31.25 69.63l35.56-6.81 16.48 2.05z"></path><path fill="#759c3e" d="M83.29 74.47 49.33 91.46v-16.4l33.96-10.19v9.6z"></path><path fill="#4b612c" d="m31.25 69.63 18.08 5.43v16.4l-18.08-9.04V69.63zM24.9 79.25l-9.54-4.78v-9.6l9.54 2.86v11.52z"></path></g></svg></svg></g></svg></g></g><g opacity="1"><g id="211f0e48-1263-44f5-8700-91db0b679522" transform="translate(0 0)"><svg x="540" y="158" overflow="visible"><g transform="scale(1.7469281074217107) "><circle cx="0" cy="0" fill="#03a9f4" r="24"></circle><svg width="34" height="32" x="-17" y="-16" style="fill: rgb(255, 255, 255);"><svg xmlns="http://www.w3.org/2000/svg" width="34" height="32" viewBox="0 0 34 32"><path d="M22.857 16.571a.564.564 0 0 0-.571-.571h-4V9.714a.587.587 0 0 0-.571-.571h-3.429a.587.587 0 0 0-.571.571V16h-4a.575.575 0 0 0-.571.571c0 .143.054.304.161.411l6.286 6.286c.107.107.25.161.411.161a.597.597 0 0 0 .411-.161L22.681 17a.66.66 0 0 0 .179-.429zm11.429 4a6.858 6.858 0 0 1-6.857 6.857H8c-4.411 0-8-3.589-8-8a7.978 7.978 0 0 1 4.607-7.232c-.018-.268-.036-.518-.036-.768a9.137 9.137 0 0 1 9.143-9.143 9.157 9.157 0 0 1 8.464 5.679 4.518 4.518 0 0 1 2.964-1.107 4.58 4.58 0 0 1 4.571 4.571c0 .875-.25 1.732-.732 2.464a6.872 6.872 0 0 1 5.304 6.679z"></path></svg></svg></g></svg></g></g><g opacity="1"><g id="883eaa56-e163-43bf-854d-2810d5da61a3" transform="translate(0 0)"><svg x="68" y="900" overflow="visible"><g transform="scale(1.2074767078498865) "><circle cx="0" cy="0" fill="transparent" r="37.5"></circle><svg width="75" height="75" x="-37.5" y="-37.5" style="fill: rgb(255, 255, 255);"><svg xmlns="http://www.w3.org/2000/svg" viewBox="0 0 75 75"><defs><linearGradient id="PurpleGradient" x1="47.47" y1="-104.53" x2="153.53" y2="1.53" gradientTransform="rotate(-90 113.5 24.5)" gradientUnits="userSpaceOnUse"><stop offset="0" stop-color="#4d27a8"></stop><stop offset="1" stop-color="#a166ff"></stop></linearGradient></defs><g id="Reference"><path id="Purple_Gradient" data-name="Purple Gradient" style="fill:url(#PurpleGradient)" d="M0 0h75v75H0z"></path><g id="Icon_Test" data-name="Icon Test"><path d="M36.44 46.52h-14c-5.48 0-9.67-3.66-9.95-8.69v-.69a9.23 9.23 0 0 1 6.79-9.28v-.8a13.64 13.64 0 0 1 23.42-9.25 15.28 15.28 0 0 1 3.14 4.49 6.17 6.17 0 0 1 3.87-1.36c2.9 0 6 2.07 6.51 6.68a11 11 0 0 1 6.3 3.73l-1.57 1.23a9.53 9.53 0 0 0-5.81-3.16 1 1 0 0 1-.84-.93c-.23-3.83-2.47-5.55-4.59-5.55a4.31 4.31 0 0 0-3.42 1.74 1 1 0 0 1-.94.39 1 1 0 0 1-.79-.65 13.83 13.83 0 0 0-3.25-5.17 11.65 11.65 0 0 0-20 7.81 13.55 13.55 0 0 0 .08 1.43 1 1 0 0 1-.75 1.07c-2.27.56-6.1 2.3-6.1 7.58a4.87 4.87 0 0 0 0 .54c.22 4 3.57 6.84 8 6.84h14Z" style="fill:#fff"></path><path d="M50.44 61.26c-11.86 0-12-13.33-12-13.46V35.63a1 1 0 0 1 .65-.94l11-4.07a1.05 1.05 0 0 1 .7 0l11 4.07a1 1 0 0 1 .65.94v12.92c0 .13-.14 12.71-12 12.71Zm-10-24.93V47.8c0 .47.14 11.46 10 11.46s10-10.27 10-10.71V36.33l-10-3.71Z" style="fill:#fff"></path><path d="M50.44 57.52c-6.36 0-7.92-8.07-8-8.41a.55.55 0 0 1 0-.18V38.57a1 1 0 0 1 .63-.93l7-2.76a1 1 0 0 1 .74 0l7 2.76a1 1 0 0 1 .63.93v10.36a1.1 1.1 0 0 1 0 .18c-.08.34-1.64 8.41-8 8.41Zm-6-8.69c.16.76 1.59 6.69 6 6.69s5.84-5.92 6-6.69v-9.58l-6-2.36-6 2.36Z" style="fill:#fff"></path></g></g></svg></svg></g></svg></g></g></g><g pointer-events="auto"><g opacity="1"><g id="a5f0c1e1-d142-45db-a5df-8b7bd25a1ce9" transform="translate(0 0)"><svg x="405" y="-315" overflow="visible"><text stroke="#ffffff" stroke-width="4" font-family="Open Sans" y="26.24" font-size="16pt" fill="#4286c5" font-weight="bold" transform="" xml:space="preserve"><tspan x="8" dy="0">Master Branch</tspan></text><text font-family="Open Sans" y="26.24" font-size="16pt" fill="#4286c5" font-weight="bold" transform="" xml:space="preserve"><tspan x="8" dy="0">Master Branch</tspan></text></svg></g></g><g opacity="1"><g id="9512b6d6-7f04-4419-91b7-d2b432b1dcbb" transform="translate(0 0)"><svg x="698" y="-675" overflow="visible"><text stroke="#ffffff" stroke-width="4" font-family="Open Sans" y="26.24" font-size="16pt" fill="#4286c5" font-weight="bold" transform="" xml:space="preserve"><tspan x="8" dy="0">Development Branch</tspan></text><text font-family="Open Sans" y="26.24" font-size="16pt" fill="#4286c5" font-weight="bold" transform="" xml:space="preserve"><tspan x="8" dy="0">Development Branch</tspan></text></svg></g></g><g opacity="1"><g id="27e780a2-54dc-480a-b604-d2c112cc50eb" transform="translate(0 0)"><svg x="675" y="-562" overflow="visible"><text stroke="#ffffff" stroke-width="4" font-family="Open Sans" y="26.24" font-size="16pt" fill="#4286c5" font-weight="bold" transform="" xml:space="preserve"><tspan x="8" dy="0">Pipeline Trigger</tspan></text><text font-family="Open Sans" y="26.24" font-size="16pt" fill="#4286c5" font-weight="bold" transform="" xml:space="preserve"><tspan x="8" dy="0">Pipeline Trigger</tspan></text></svg></g></g><g opacity="1"><g id="f63bb618-d3f9-41d2-a5d3-c7e50e2526de" transform="translate(0 0)"><svg x="203" y="-315" overflow="visible"><text stroke="#ffffff" stroke-width="4" font-family="Open Sans" y="26.24" font-size="16pt" fill="#4286c5" font-weight="bold" transform="" xml:space="preserve"><tspan x="8" dy="0">emr-jobs</tspan></text><text font-family="Open Sans" y="26.24" font-size="16pt" fill="#4286c5" font-weight="bold" transform="" xml:space="preserve"><tspan x="8" dy="0">emr-jobs</tspan></text></svg></g></g><g opacity="1"><g id="a334e6d4-2308-4ecf-b90a-9b0bfdfb1a50" transform="translate(0 0)"><svg x="495" y="-675" overflow="visible"><text stroke="#ffffff" stroke-width="4" font-family="Open Sans" y="26.24" font-size="16pt" fill="#4286c5" font-weight="bold" transform="" xml:space="preserve"><tspan x="8" dy="0">emr-jobs</tspan></text><text font-family="Open Sans" y="26.24" font-size="16pt" fill="#4286c5" font-weight="bold" transform="" xml:space="preserve"><tspan x="8" dy="0">emr-jobs</tspan></text></svg></g></g><g opacity="1"><g id="eb50a364-8d62-45c5-bae3-d21acb31880c" transform="translate(0 0)"><svg x="225" y="-472" overflow="visible"><text stroke="#ffffff" stroke-width="4" font-family="Open Sans" y="26.24" font-size="16pt" fill="#4286c5" font-weight="bold" transform="" xml:space="preserve"><tspan x="8" dy="0">Merge to Master Branch</tspan></text><text font-family="Open Sans" y="26.24" font-size="16pt" fill="#4286c5" font-weight="bold" transform="" xml:space="preserve"><tspan x="8" dy="0">Merge to Master Branch</tspan></text></svg></g></g><g opacity="1"><g id="16893119-36cf-4375-b44b-470ad88606cc" transform="translate(0 0)"><svg x="855" y="-202" overflow="visible"><text stroke="#ffffff" stroke-width="4" font-family="Open Sans" y="26.24" font-size="16pt" fill="#4286c5" font-weight="bold" transform="" xml:space="preserve"><tspan x="8" dy="0">Pipeline Trigger</tspan></text><text font-family="Open Sans" y="26.24" font-size="16pt" fill="#4286c5" font-weight="bold" transform="" xml:space="preserve"><tspan x="8" dy="0">Pipeline Trigger</tspan></text></svg></g></g><g opacity="1"><g id="93d8b84b-4c4f-4a4d-bd6d-dd3e60e05efa" transform="translate(0 0)"><svg x="1530" y="-562" overflow="visible"><text stroke="#ffffff" stroke-width="4" font-family="Open Sans" y="30.799999999999997" font-size="20pt" fill="#f5b720" font-weight="bold" transform="" xml:space="preserve"><tspan x="8" dy="0">  Manual</tspan><tspan x="8" dy="1.1em"> Approval</tspan></text><text font-family="Open Sans" y="30.799999999999997" font-size="20pt" fill="#f5b720" font-weight="bold" transform="" xml:space="preserve"><tspan x="8" dy="0">  Manual</tspan><tspan x="8" dy="1.1em"> Approval</tspan></text></svg></g></g><g opacity="1"><g id="6228986c-79e3-444d-90a5-67aed86374e0" transform="translate(0 0)"><svg x="2070" y="-697" overflow="visible"><text stroke="#ffffff" stroke-width="4" font-family="Open Sans" y="30.799999999999997" font-size="20pt" fill="#f5b720" font-weight="bold" transform="" xml:space="preserve"><tspan x="8" dy="0">Test</tspan></text><text font-family="Open Sans" y="30.799999999999997" font-size="20pt" fill="#f5b720" font-weight="bold" transform="" xml:space="preserve"><tspan x="8" dy="0">Test</tspan></text></svg></g></g><g opacity="1"><g id="05b81315-ed83-4f93-a68d-21793238735d" transform="translate(0 0)"><svg x="1778" y="-900" overflow="visible"><text stroke="#ffffff" stroke-width="4" font-family="Open Sans" y="30.799999999999997" font-size="20pt" fill="#f5b720" font-weight="bold" transform="" xml:space="preserve"><tspan x="8" dy="0">  S3 Bucket</tspan></text><text font-family="Open Sans" y="30.799999999999997" font-size="20pt" fill="#f5b720" font-weight="bold" transform="" xml:space="preserve"><tspan x="8" dy="0">  S3 Bucket</tspan></text></svg></g></g><g opacity="1"><g id="cc0a1547-d88a-4d4d-95c6-b8eca055d768" transform="translate(0 0)"><svg x="1935" y="-270" overflow="visible"><text stroke="#ffffff" stroke-width="4" font-family="Open Sans" y="23.96" font-size="14pt" fill="#f5b720" font-weight="bold" transform="" xml:space="preserve"><tspan x="8" dy="0">CLI Tests</tspan></text><text font-family="Open Sans" y="23.96" font-size="14pt" fill="#f5b720" font-weight="bold" transform="" xml:space="preserve"><tspan x="8" dy="0">CLI Tests</tspan></text></svg></g></g><g opacity="1"><g id="c6695e34-da93-4751-8505-f23cfaf677c3" transform="translate(0 0)"><svg x="1058" y="-562" overflow="visible"><text stroke="#ffffff" stroke-width="4" font-family="Open Sans" y="26.24" font-size="16pt" fill="#f5b720" font-weight="bold" transform="" xml:space="preserve"><tspan x="8" dy="0">       hkc-dev </tspan><tspan x="8" dy="1.1em"> CodePipeline 2</tspan></text><text font-family="Open Sans" y="26.24" font-size="16pt" fill="#f5b720" font-weight="bold" transform="" xml:space="preserve"><tspan x="8" dy="0">       hkc-dev </tspan><tspan x="8" dy="1.1em"> CodePipeline 2</tspan></text></svg></g></g><g opacity="1"><g id="f4b95c1b-5f31-4c2e-b95a-1d0534ee93cd" transform="translate(0 0)"><svg x="1283" y="-720" overflow="visible"><text stroke="#ffffff" stroke-width="4" font-family="Open Sans" y="30.799999999999997" font-size="20pt" fill="#f5b720" font-weight="bold" transform="" xml:space="preserve"><tspan x="8" dy="0"> CodeBuild</tspan></text><text font-family="Open Sans" y="30.799999999999997" font-size="20pt" fill="#f5b720" font-weight="bold" transform="" xml:space="preserve"><tspan x="8" dy="0"> CodeBuild</tspan></text></svg></g></g><g opacity="1"><g id="e8047014-9962-4a28-808a-024dd3df3b4a" transform="translate(0 0)"><svg x="1283" y="-360" overflow="visible"><text stroke="#ffffff" stroke-width="4" font-family="Open Sans" y="30.799999999999997" font-size="20pt" fill="#f5b720" font-weight="bold" transform="" xml:space="preserve"><tspan x="8" dy="0"> CodeBuild</tspan></text><text font-family="Open Sans" y="30.799999999999997" font-size="20pt" fill="#f5b720" font-weight="bold" transform="" xml:space="preserve"><tspan x="8" dy="0"> CodeBuild</tspan></text></svg></g></g><g opacity="1"><g id="4acf42d8-583c-40e1-8093-bf10ca01ea9a" transform="translate(0 0)"><svg x="1553" y="-360" overflow="visible"><text stroke="#ffffff" stroke-width="4" font-family="Open Sans" y="30.799999999999997" font-size="20pt" fill="#f5b720" font-weight="bold" transform="" xml:space="preserve"><tspan x="8" dy="0">Deploy</tspan></text><text font-family="Open Sans" y="30.799999999999997" font-size="20pt" fill="#f5b720" font-weight="bold" transform="" xml:space="preserve"><tspan x="8" dy="0">Deploy</tspan></text></svg></g></g><g opacity="1"><g id="e6919602-66c9-4b10-9c17-443aa2e9caf2" transform="translate(0 0)"><svg x="2183" y="-540" overflow="visible"><text stroke="#ffffff" stroke-width="4" font-family="Open Sans" y="26.24" font-size="16pt" fill="#f5b720" font-weight="bold" transform="" xml:space="preserve"><tspan x="8" dy="0"> hkc-prod/int-test/sand-04</tspan><tspan x="8" dy="1.1em">            CodePipeline</tspan></text><text font-family="Open Sans" y="26.24" font-size="16pt" fill="#f5b720" font-weight="bold" transform="" xml:space="preserve"><tspan x="8" dy="0"> hkc-prod/int-test/sand-04</tspan><tspan x="8" dy="1.1em">            CodePipeline</tspan></text></svg></g></g><g opacity="1"><g id="5f4a385f-6b95-403d-9cec-1f80d612fe40" transform="translate(0 0)"><svg x="2070" y="-337" overflow="visible"><text stroke="#ffffff" stroke-width="4" font-family="Open Sans" y="30.799999999999997" font-size="20pt" fill="#f5b720" font-weight="bold" transform="" xml:space="preserve"><tspan x="8" dy="0">Test</tspan></text><text font-family="Open Sans" y="30.799999999999997" font-size="20pt" fill="#f5b720" font-weight="bold" transform="" xml:space="preserve"><tspan x="8" dy="0">Test</tspan></text></svg></g></g><g opacity="1"><g id="4c9a20b8-2884-45ed-89bf-bb88cbba501a" transform="translate(0 0)"><svg x="1778" y="-697" overflow="visible"><text stroke="#ffffff" stroke-width="4" font-family="Open Sans" y="30.799999999999997" font-size="20pt" fill="#f5b720" font-weight="bold" transform="" xml:space="preserve"><tspan x="8" dy="0"> CodeBuild</tspan></text><text font-family="Open Sans" y="30.799999999999997" font-size="20pt" fill="#f5b720" font-weight="bold" transform="" xml:space="preserve"><tspan x="8" dy="0"> CodeBuild</tspan></text></svg></g></g><g opacity="1"><g id="b3a2e6e4-0f8a-4863-9993-a3c50d8a76cf" transform="translate(0 0)"><svg x="1778" y="-517" overflow="visible"><text stroke="#ffffff" stroke-width="4" font-family="Open Sans" y="30.799999999999997" font-size="20pt" fill="#f5b720" font-weight="bold" transform="" xml:space="preserve"><tspan x="8" dy="0"> CodeBuild</tspan></text><text font-family="Open Sans" y="30.799999999999997" font-size="20pt" fill="#f5b720" font-weight="bold" transform="" xml:space="preserve"><tspan x="8" dy="0"> CodeBuild</tspan></text></svg></g></g><g opacity="1"><g id="1081c794-8372-4e1e-88eb-97113490b5f8" transform="translate(0 0)"><svg x="1305" y="-180" overflow="visible"><text stroke="#ffffff" stroke-width="4" font-family="Open Sans" y="30.799999999999997" font-size="20pt" fill="#f5b720" font-weight="bold" transform="" xml:space="preserve"><tspan x="8" dy="0">     AWS </tspan><tspan x="8" dy="1.1em">  Lambda</tspan></text><text font-family="Open Sans" y="30.799999999999997" font-size="20pt" fill="#f5b720" font-weight="bold" transform="" xml:space="preserve"><tspan x="8" dy="0">     AWS </tspan><tspan x="8" dy="1.1em">  Lambda</tspan></text></svg></g></g><g opacity="1"><g id="33a2b50f-e83a-438d-b544-85320bc8db36" transform="translate(0 0)"><svg x="2048" y="-517" overflow="visible"><text stroke="#ffffff" stroke-width="4" font-family="Open Sans" y="30.799999999999997" font-size="20pt" fill="#f5b720" font-weight="bold" transform="" xml:space="preserve"><tspan x="8" dy="0">Deploy</tspan></text><text font-family="Open Sans" y="30.799999999999997" font-size="20pt" fill="#f5b720" font-weight="bold" transform="" xml:space="preserve"><tspan x="8" dy="0">Deploy</tspan></text></svg></g></g><g opacity="1"><g id="785cf5ab-6f9f-41ae-9a4a-c6ff62504d6d" transform="translate(0 0)"><svg x="1553" y="-180" overflow="visible"><text stroke="#ffffff" stroke-width="4" font-family="Open Sans" y="30.799999999999997" font-size="20pt" fill="#f5b720" font-weight="bold" transform="" xml:space="preserve"><tspan x="8" dy="0">  Build</tspan><tspan x="8" dy="1.1em"> Trigger</tspan></text><text font-family="Open Sans" y="30.799999999999997" font-size="20pt" fill="#f5b720" font-weight="bold" transform="" xml:space="preserve"><tspan x="8" dy="0">  Build</tspan><tspan x="8" dy="1.1em"> Trigger</tspan></text></svg></g></g><g opacity="1"><g id="b81b4ad3-5e2e-4f6f-bf9a-b45a81384dc8" transform="translate(0 0)"><svg x="1305" y="-292" overflow="visible"><text stroke="#ffffff" stroke-width="4" font-family="Open Sans" y="23.96" font-size="14pt" fill="#f5b720" font-weight="bold" transform="" xml:space="preserve"><tspan x="8" dy="0">  Artifacts are synced to BAT Bucket</tspan></text><text font-family="Open Sans" y="23.96" font-size="14pt" fill="#f5b720" font-weight="bold" transform="" xml:space="preserve"><tspan x="8" dy="0">  Artifacts are synced to BAT Bucket</tspan></text></svg></g></g><g opacity="1"><g id="7693f9a2-c9e7-4ee5-a6c3-9e5f7758b84f" transform="translate(0 0)"><svg x="1553" y="-900" overflow="visible"><text stroke="#ffffff" stroke-width="4" font-family="Open Sans" y="30.799999999999997" font-size="20pt" fill="#f5b720" font-weight="bold" transform="" xml:space="preserve"><tspan x="8" dy="0">Source</tspan></text><text font-family="Open Sans" y="30.799999999999997" font-size="20pt" fill="#f5b720" font-weight="bold" transform="" xml:space="preserve"><tspan x="8" dy="0">Source</tspan></text></svg></g></g><g opacity="1"><g id="2d1c979e-205f-40f2-a404-ca4bc4d82d06" transform="translate(0 0)"><svg x="1575" y="-720" overflow="visible"><text stroke="#ffffff" stroke-width="4" font-family="Open Sans" y="30.799999999999997" font-size="20pt" fill="#f5b720" font-weight="bold" transform="" xml:space="preserve"><tspan x="8" dy="0">Test</tspan></text><text font-family="Open Sans" y="30.799999999999997" font-size="20pt" fill="#f5b720" font-weight="bold" transform="" xml:space="preserve"><tspan x="8" dy="0">Test</tspan></text></svg></g></g><g opacity="1"><g id="829db348-2c05-40b1-8a94-343271fc791f" transform="translate(0 0)"><svg x="1283" y="-900" overflow="visible"><text stroke="#ffffff" stroke-width="4" font-family="Open Sans" y="30.799999999999997" font-size="20pt" fill="#f5b720" font-weight="bold" transform="" xml:space="preserve"><tspan x="8" dy="0">  S3 Bucket</tspan></text><text font-family="Open Sans" y="30.799999999999997" font-size="20pt" fill="#f5b720" font-weight="bold" transform="" xml:space="preserve"><tspan x="8" dy="0">  S3 Bucket</tspan></text></svg></g></g><g opacity="1"><g id="efd91bb7-a43d-45fa-8446-84bb461f8c9b" transform="translate(0 0)"><svg x="1845" y="-832" overflow="visible"><text stroke="#ffffff" stroke-width="4" font-family="Open Sans" y="23.96" font-size="14pt" fill="#f5b720" font-weight="bold" transform="" xml:space="preserve"><tspan x="8" dy="0">   Waiting for Build Trigger</tspan></text><text font-family="Open Sans" y="23.96" font-size="14pt" fill="#f5b720" font-weight="bold" transform="" xml:space="preserve"><tspan x="8" dy="0">   Waiting for Build Trigger</tspan></text></svg></g></g><g opacity="1"><g id="bd31e2b5-ead7-4db1-9c59-99fdc96a5fc0" transform="translate(0 0)"><svg x="2048" y="-900" overflow="visible"><text stroke="#ffffff" stroke-width="4" font-family="Open Sans" y="30.799999999999997" font-size="20pt" fill="#f5b720" font-weight="bold" transform="" xml:space="preserve"><tspan x="8" dy="0">Source</tspan></text><text font-family="Open Sans" y="30.799999999999997" font-size="20pt" fill="#f5b720" font-weight="bold" transform="" xml:space="preserve"><tspan x="8" dy="0">Source</tspan></text></svg></g></g><g opacity="1"><g id="a82ef343-e3c6-43e7-b4fc-0a80faa6b5f4" transform="translate(0 0)"><svg x="563" y="1125" overflow="visible"><text stroke="#ffffff" stroke-width="4" font-family="Open Sans" y="30.799999999999997" font-size="20pt" fill="#3b48cc" font-weight="bold" transform="" xml:space="preserve"><tspan x="8" dy="0">MySQL Database (RDS)</tspan></text><text font-family="Open Sans" y="30.799999999999997" font-size="20pt" fill="#3b48cc" font-weight="bold" transform="" xml:space="preserve"><tspan x="8" dy="0">MySQL Database (RDS)</tspan></text></svg></g></g><g opacity="1"><g id="4d5fb071-fcbe-4c06-90c3-3c4d3d4481e6" transform="translate(0 0)"><svg x="338" y="428" overflow="visible"><text stroke="#ffffff" stroke-width="4" font-family="Open Sans" y="30.799999999999997" font-size="20pt" fill="#673ab7" font-weight="bold" transform="" xml:space="preserve"><tspan x="8" dy="0"> CloudFront Proxy and Cache</tspan></text><text font-family="Open Sans" y="30.799999999999997" font-size="20pt" fill="#673ab7" font-weight="bold" transform="" xml:space="preserve"><tspan x="8" dy="0"> CloudFront Proxy and Cache</tspan></text></svg></g></g><g opacity="1"><g id="062b424f-83f4-4f39-98c9-191ebf30040f" transform="translate(0 0)"><svg x="428" y="203" overflow="visible"><text stroke="#ffffff" stroke-width="4" font-family="Open Sans" y="30.799999999999997" font-size="20pt" fill="#03a9f4" font-weight="bold" transform="" xml:space="preserve"><tspan x="8" dy="0">   User Request</tspan></text><text font-family="Open Sans" y="30.799999999999997" font-size="20pt" fill="#03a9f4" font-weight="bold" transform="" xml:space="preserve"><tspan x="8" dy="0">   User Request</tspan></text></svg></g></g><g opacity="1"><g id="357ba791-80b4-439f-9750-23413f969b59" transform="translate(0 0)"><svg x="203" y="1125" overflow="visible"><text stroke="#ffffff" stroke-width="4" font-family="Open Sans" y="30.799999999999997" font-size="20pt" fill="#3f8624" font-weight="bold" transform="" xml:space="preserve"><tspan x="8" dy="0">Elastic File System (EFS)</tspan></text><text font-family="Open Sans" y="30.799999999999997" font-size="20pt" fill="#3f8624" font-weight="bold" transform="" xml:space="preserve"><tspan x="8" dy="0">Elastic File System (EFS)</tspan></text></svg></g></g><g opacity="1"><g id="f8fe5df8-9b4d-4256-8e7a-01e1ee486d3f" transform="translate(0 0)"><svg x="23" y="945" overflow="visible"><text stroke="#ffffff" stroke-width="4" font-family="Open Sans" y="30.799999999999997" font-size="20pt" fill="#673ab7" font-weight="bold" transform="" xml:space="preserve"><tspan x="8" dy="0">  VPC</tspan></text><text font-family="Open Sans" y="30.799999999999997" font-size="20pt" fill="#673ab7" font-weight="bold" transform="" xml:space="preserve"><tspan x="8" dy="0">  VPC</tspan></text></svg></g></g><g opacity="1"><g id="d1aa3b19-3681-4a4c-b987-487424ac592d" transform="translate(0 0)"><svg x="765" y="878" overflow="visible"><text stroke="#ffffff" stroke-width="4" font-family="Open Sans" y="30.799999999999997" font-size="20pt" fill="#d86613" font-weight="bold" transform="" xml:space="preserve"><tspan x="8" dy="0">  ECR</tspan></text><text font-family="Open Sans" y="30.799999999999997" font-size="20pt" fill="#d86613" font-weight="bold" transform="" xml:space="preserve"><tspan x="8" dy="0">  ECR</tspan></text></svg></g></g></g><g pointer-events="auto"><g></g><g></g><g></g><g></g><g></g><g></g><g></g><g></g><g></g><g></g></g></g></svg>